<?xml version="1.0" standalone="no"?>
<!DOCTYPE svg PUBLIC "-//W3C//DTD SVG 20010904//EN"
 "http://www.w3.org/TR/2001/REC-SVG-20010904/DTD/svg10.dtd">
<svg version="1.0" xmlns="http://www.w3.org/2000/svg"
 width="1430.000000pt" height="691.000000pt" viewBox="0 0 1430.000000 691.000000"
 preserveAspectRatio="xMidYMid meet">

<g transform="translate(0.000000,691.000000) scale(0.100000,-0.100000)"
fill="#000000" stroke="none">
<path d="M2455 6260 c-33 -5 -102 -13 -154 -19 -237 -27 -275 -43 -605 -258
-146 -95 -151 -109 -40 -106 47 1 64 -2 61 -10 -2 -8 -63 -14 -203 -19 -109
-3 -230 -11 -269 -17 -38 -5 -101 -11 -138 -12 -42 -1 -74 -8 -82 -16 -15 -14
-39 -18 -31 -4 12 19 -52 19 -110 0 -51 -17 -65 -27 -83 -59 -28 -50 -27 -62
5 -54 29 7 29 7 2 -72 -14 -40 -5 -64 23 -64 13 0 38 -5 56 -12 24 -9 39 -9
50 -2 35 22 26 34 -26 34 -35 0 -51 4 -51 13 0 22 23 37 57 37 45 0 41 13 -9
30 -53 19 -62 40 -17 40 20 0 42 -9 56 -22 l23 -21 0 20 c0 19 6 21 59 22 99
0 103 -35 12 -123 -48 -48 -54 -50 -123 -58 -46 -4 -74 -4 -76 2 -2 6 -18 10
-35 10 -39 0 -53 9 -59 35 -3 11 -8 -7 -13 -40 -4 -33 -12 -65 -17 -72 -13
-16 -38 -5 -31 13 3 10 -2 14 -18 14 -13 0 -31 5 -39 10 -11 7 -5 10 23 10 39
0 49 13 20 25 -17 6 -17 7 -1 19 24 17 23 26 -3 26 -11 0 -17 5 -14 10 3 6 18
10 33 10 l27 0 -25 19 -25 19 30 8 c26 6 27 8 10 15 -11 4 -38 9 -60 10 -33 2
-35 3 -10 6 17 2 45 6 63 9 33 5 33 6 16 25 -16 18 -16 19 9 19 15 0 27 5 27
10 0 6 -30 10 -70 10 -62 0 -71 -3 -85 -24 -16 -24 -26 -55 -29 -91 -1 -11 -7
-30 -15 -43 -7 -13 -10 -30 -7 -39 3 -8 3 -20 -1 -26 -4 -6 -8 -25 -10 -43 -3
-30 -2 -32 42 -37 50 -5 64 -12 49 -27 -11 -11 -103 -15 -126 -5 -30 12 -35
-24 -7 -47 23 -18 37 -19 235 -14 265 6 368 0 360 -23 -15 -48 -38 -107 -45
-113 -4 -5 -20 -8 -36 -9 -17 -1 -65 -8 -109 -15 -101 -18 -98 -19 -78 16 15
27 16 32 2 56 -8 15 -24 33 -36 41 -18 12 -24 11 -44 -5 -19 -16 -21 -24 -15
-61 4 -23 13 -45 21 -48 28 -10 13 -24 -23 -21 -40 3 -47 16 -62 103 l-6 40
-90 1 c-50 0 -98 -3 -107 -8 -24 -12 -25 -94 -2 -127 22 -31 112 -72 141 -65
17 5 23 2 23 -9 0 -9 8 -23 17 -33 10 -9 20 -38 23 -63 l5 -46 106 -10 c104
-10 107 -11 149 -49 79 -71 126 -83 237 -61 26 6 41 1 80 -26 48 -34 48 -34
168 -34 66 0 138 5 160 12 101 31 183 119 205 221 l14 59 40 1 c23 0 56 3 74
7 25 6 45 2 76 -13 39 -20 54 -21 349 -18 l308 3 49 54 c27 30 49 62 50 71 0
26 74 69 154 90 38 11 76 23 85 28 72 38 588 113 836 122 l100 3 120 80 c122
82 284 158 371 174 78 15 61 21 -59 21 -64 0 -117 4 -117 9 0 29 247 51 585
51 l267 0 -7 27 c-9 36 -20 43 -80 43 -27 0 -248 7 -490 15 -242 8 -513 15
-603 15 -135 0 -164 3 -168 15 -4 8 -12 15 -20 15 -7 0 -16 10 -18 23 -29 141
-41 180 -67 232 -41 81 -53 92 -113 104 -120 25 -929 48 -1051 31z m-106 -364
c-10 -8 -89 -13 -89 -5 0 5 21 9 47 9 25 0 44 -2 42 -4z m395 -5 c7 -11 -17
-21 -50 -21 -23 0 -31 10 -17 23 10 10 61 8 67 -2z m-204 -20 c0 -23 -59 -51
-109 -51 l-50 0 17 30 c16 28 21 30 80 30 34 0 62 -4 62 -9z m-590 -136 c0
-12 -16 -15 -80 -15 -73 0 -91 6 -73 23 3 4 39 7 80 7 58 0 73 -3 73 -15z
m1816 -291 c-15 -14 -31 -23 -34 -20 -9 9 30 46 47 46 11 -1 8 -8 -13 -26z
m-2296 -163 c0 -25 -28 -53 -48 -49 -18 3 -44 47 -36 60 3 4 23 8 45 8 32 0
39 -4 39 -19z m-151 -53 c14 -17 15 -26 7 -44 -14 -30 -17 -30 -45 0 -19 20
-21 28 -12 45 15 27 28 27 50 -1z m265 0 c15 -21 14 -24 -12 -45 -34 -28 -35
-28 -47 0 -8 17 -6 27 9 45 24 28 31 28 50 0z m-564 -98 c0 -5 -13 -10 -30
-10 -16 0 -30 5 -30 10 0 6 14 10 30 10 17 0 30 -4 30 -10z m448 -23 c3 -15
-2 -17 -32 -14 -41 4 -51 11 -41 27 11 18 69 8 73 -13z m121 -13 l43 -7 -7
-46 c-8 -53 -25 -84 -60 -107 -39 -25 -39 -12 0 30 39 43 44 64 18 72 -10 3
-27 10 -37 16 -27 14 -49 -16 -40 -54 3 -16 1 -28 -4 -28 -6 0 -12 -8 -14 -17
-3 -16 -7 -14 -31 10 -15 15 -31 27 -34 27 -3 0 -17 -12 -30 -26 l-24 -27 -14
26 c-7 14 -11 34 -9 44 3 10 -1 26 -9 37 -11 14 -18 16 -33 8 -10 -6 -27 -13
-36 -16 -27 -8 -22 -29 17 -72 41 -45 28 -60 -16 -18 -28 27 -49 77 -49 120 0
18 8 23 46 29 26 3 52 9 58 11 7 3 18 -7 26 -21 7 -14 29 -34 47 -45 l34 -20
28 21 c15 11 35 34 45 50 13 22 21 27 30 20 7 -6 31 -13 55 -17z m-221 -186
c6 -6 32 -11 57 -11 25 0 51 5 57 11 15 15 38 16 38 2 0 -5 -9 -10 -19 -10
-11 0 -23 -4 -26 -10 -13 -21 -145 -1 -145 22 0 12 24 10 38 -4z"/>
<path d="M7934 5964 c-15 -19 -24 -37 -21 -41 4 -3 -4 -14 -18 -25 -25 -19
-55 -104 -55 -153 0 -15 9 -42 19 -59 17 -28 26 -88 22 -156 0 -15 -10 -29
-23 -35 -12 -6 -32 -30 -45 -54 -13 -25 -30 -53 -39 -62 -12 -14 -13 -22 -5
-38 20 -36 -18 -104 -63 -112 -39 -8 -43 -35 -12 -94 l28 -55 -37 -46 c-45
-54 -64 -112 -69 -211 -4 -68 -8 -77 -45 -125 -23 -28 -41 -55 -41 -60 0 -5
-10 -22 -22 -38 l-22 -30 -280 1 c-155 0 -289 3 -298 7 -10 4 -14 12 -10 18 7
11 73 19 362 45 121 11 200 26 200 39 0 4 -17 15 -37 23 -21 9 -33 16 -27 16
23 2 86 32 79 39 -4 4 -79 9 -167 12 -112 3 -163 9 -165 17 -7 19 28 31 117
42 46 6 86 15 89 20 3 4 23 14 44 22 43 15 70 39 44 39 -9 0 -28 -5 -44 -11
-15 -6 -102 -14 -193 -18 -131 -6 -171 -5 -192 6 -33 16 -34 12 -15 -63 7 -28
11 -56 9 -62 -4 -14 -67 -44 -137 -65 -66 -20 -550 -33 -1075 -29 -342 3 -390
5 -425 21 -62 27 -71 44 -57 98 7 25 10 48 8 51 -3 2 -49 6 -103 8 -53 2 -110
6 -126 10 -29 6 -29 6 -13 -18 9 -14 27 -30 41 -36 33 -15 32 -33 -2 -31 -16
0 -38 -2 -50 -6 -18 -6 -23 -2 -29 19 -8 35 -24 23 -24 -19 0 -22 6 -38 18
-44 14 -8 218 -33 240 -30 18 3 32 -2 47 -18 16 -15 14 -18 -36 -43 -64 -31
-71 -46 -25 -54 53 -10 55 -27 4 -27 -23 0 -104 -1 -178 -2 -74 -2 -141 -1
-147 1 -7 2 -13 13 -13 24 0 18 -6 19 -112 16 l-112 -3 3 91 c6 207 -60 378
-170 439 -46 26 -64 30 -124 29 -140 -1 -255 -94 -327 -266 -32 -75 -78 -274
-78 -336 0 -20 -9 -52 -20 -70 -28 -46 -25 -65 17 -99 81 -65 93 -68 273 -68
l165 0 55 37 c44 30 71 39 138 50 65 10 82 16 82 29 0 18 -27 29 -72 29 -32 0
-46 16 -21 24 105 31 288 53 312 38 9 -7 10 -12 2 -16 -27 -17 4 -300 39 -361
10 -17 20 -63 24 -105 13 -148 88 -308 179 -382 77 -61 83 -63 207 -62 120 1
250 23 304 51 49 25 114 82 137 120 12 19 27 60 33 91 9 43 15 56 26 52 8 -3
207 -3 441 -1 l427 3 27 -30 c44 -49 82 -62 184 -62 102 0 144 13 184 56 22
23 28 25 41 15 9 -8 16 -21 16 -30 0 -26 85 -162 128 -204 36 -35 44 -38 128
-48 103 -13 169 -8 290 22 109 28 141 54 196 165 36 74 42 96 50 186 14 156 4
140 109 161 51 10 98 22 105 28 7 5 67 8 145 7 158 -4 151 3 168 -147 12 -111
41 -179 86 -201 20 -10 61 -15 125 -15 108 0 144 13 170 60 22 39 38 105 46
185 3 36 11 71 16 77 10 13 47 209 48 254 0 38 18 51 45 33 13 -8 85 -23 161
-32 l139 -18 22 -44 c13 -25 27 -56 32 -70 15 -41 100 -150 124 -159 65 -25
101 -31 176 -31 79 0 84 1 141 40 32 22 73 60 91 85 36 51 42 53 149 59 41 2
100 8 130 14 30 6 238 12 462 14 l408 4 27 -28 c15 -16 52 -42 82 -59 48 -25
65 -29 137 -29 61 0 83 4 87 14 3 8 26 24 52 37 25 13 66 45 91 71 24 26 57
50 72 53 81 17 121 31 155 54 44 28 44 19 6 176 -25 106 -36 215 -20 215 5 0
24 -29 41 -64 36 -73 147 -186 201 -205 26 -9 282 -29 398 -31 11 0 11 4 -2
18 -25 28 -21 37 24 57 42 19 120 90 152 138 l18 27 327 0 c298 1 355 4 432
24 22 6 29 0 55 -45 36 -61 78 -100 147 -135 l51 -26 -39 -17 c-21 -10 -45
-26 -53 -35 -14 -17 -8 -17 105 -11 65 3 138 8 162 11 43 5 54 17 27 28 -27
10 -16 24 34 41 61 20 135 77 179 139 19 27 41 46 52 46 26 0 33 15 37 82 1
33 8 68 13 79 6 11 10 52 9 92 -1 40 -1 112 0 161 1 71 -2 92 -15 108 -13 13
-15 21 -7 29 6 6 9 19 6 28 -18 52 -53 118 -71 134 -46 42 -338 117 -454 117
-68 0 -171 30 -235 68 -33 20 -116 75 -184 121 -169 115 -223 139 -387 168
-172 29 -533 54 -760 51 -170 -2 -173 -2 -168 -22 4 -12 23 -84 44 -161 l37
-140 150 -2 c188 -2 369 -18 505 -44 85 -17 126 -19 225 -14 66 4 148 11 182
16 44 7 101 5 200 -6 136 -15 171 -21 308 -49 39 -8 123 -22 187 -31 65 -10
115 -21 112 -26 -3 -5 -38 -9 -79 -9 -52 0 -78 -4 -89 -15 -23 -23 -191 -25
-232 -3 -39 21 -373 47 -720 55 -347 8 -404 -3 -404 -77 l0 -30 -92 2 c-93 2
-213 -12 -240 -28 -28 -17 -82 -84 -110 -136 l-28 -52 3 114 2 115 -65 -4
c-36 -2 -67 -7 -70 -10 -7 -11 -116 -61 -132 -61 -7 0 -47 -10 -88 -21 -41
-11 -86 -22 -100 -25 -14 -2 -59 -11 -100 -18 -64 -12 -79 -12 -109 0 -35 14
-71 11 -71 -7 0 -10 -127 -6 -238 7 -54 7 -66 15 -67 48 0 27 -72 75 -113 76
-23 0 -58 18 -125 63 -50 35 -135 87 -187 114 -88 47 -106 53 -250 77 -211 35
-385 47 -710 49 -313 2 -394 -5 -387 -33 4 -15 -2 -18 -44 -18 -76 0 -146 -20
-255 -73 -55 -27 -104 -49 -109 -49 -5 0 -30 -15 -57 -32 -40 -28 -48 -38 -48
-65 0 -18 -3 -33 -6 -33 -3 0 -23 14 -44 30 -33 26 -46 30 -98 30 -34 0 -64 5
-67 10 -4 6 -3 24 0 41 6 25 17 35 61 55 30 13 54 28 54 34 0 17 -46 30 -136
36 -46 4 -84 10 -84 14 0 9 80 22 128 22 17 0 32 4 32 10 0 11 -98 161 -128
195 -36 41 -136 84 -224 96 -34 5 -41 2 -64 -29z m137 -44 c12 0 16 -5 13 -15
-3 -8 2 -37 11 -64 29 -89 12 -91 -33 -4 -47 91 -49 98 -26 89 9 -3 24 -6 35
-6z m1060 -342 c37 -50 139 -259 133 -270 -19 -30 -80 20 -108 86 -7 17 -22
51 -33 76 -37 82 -43 101 -43 125 0 36 16 31 51 -17z m-897 -69 c-7 -11 -34
-12 -34 -1 0 14 11 21 26 15 8 -3 11 -9 8 -14z m4501 -59 c32 17 49 5 34 -23
-9 -16 -9 -22 0 -25 14 -5 14 -29 0 -38 -11 -7 -33 20 -34 41 0 13 -35 19 -35
6 0 -6 5 -11 10 -11 6 0 10 -7 10 -15 0 -10 -10 -15 -30 -15 -22 0 -30 5 -30
17 0 13 -3 14 -12 5 -16 -16 -50 -15 -73 2 -18 13 -18 14 5 37 15 16 24 20 27
12 3 -7 16 -13 29 -13 18 0 24 5 24 21 0 21 1 21 26 4 22 -14 30 -15 49 -5z
m161 -52 c29 -45 30 -58 5 -58 -23 0 -36 16 -45 55 -4 17 -10 39 -13 50 -5 18
-4 18 12 5 10 -8 28 -32 41 -52z m48 23 c10 -17 16 -34 14 -37 -8 -7 -58 47
-58 63 0 23 23 9 44 -26z m-431 3 c18 -12 18 -13 -3 -24 -15 -8 -30 -9 -51 -1
-18 6 -29 6 -29 0 0 -15 -30 -10 -36 6 -13 33 3 45 53 38 26 -3 56 -12 66 -19z
m510 -14 c3 -11 3 -20 0 -20 -10 0 -32 34 -33 49 0 20 26 -4 33 -29z m153 -22
c8 -15 14 -32 14 -38 0 -22 -21 2 -46 53 -26 50 -26 51 -4 32 12 -11 28 -32
36 -47z m-68 -14 c-3 -14 -10 -8 -27 26 l-23 45 27 -26 c16 -16 25 -34 23 -45z
m142 -4 c9 -19 21 -51 24 -70 5 -26 -4 -14 -33 45 -22 44 -40 85 -40 90 0 14
26 -22 49 -65z m375 58 c2 -2 12 -56 21 -119 11 -72 23 -120 33 -132 13 -13
42 -19 121 -26 100 -8 102 -8 33 -10 -81 -1 -104 -7 -97 -26 6 -14 -25 -25
-70 -25 -34 0 -67 -26 -59 -45 9 -24 -53 -27 -403 -20 -607 11 -566 12 -577
-6 -15 -23 -2 -60 35 -101 l33 -37 127 -6 c117 -6 128 -5 135 11 4 10 -2 33
-16 56 -12 21 -17 38 -12 38 5 0 12 -8 15 -18 4 -10 24 -36 47 -58 l40 -39
282 -5 c155 -3 277 -8 270 -13 -6 -4 -157 -10 -335 -14 -228 -4 -330 -9 -348
-18 -29 -15 -469 -28 -535 -17 -36 6 -40 11 -43 39 -4 38 29 73 67 73 36 0
115 32 100 40 -14 9 23 120 54 162 l20 26 -42 97 c-23 54 -40 100 -37 102 2 3
83 0 178 -7 95 -7 209 -14 253 -16 78 -3 81 -4 117 -42 80 -86 92 -89 335 -97
120 -3 154 -1 163 10 18 22 -13 156 -58 249 -5 9 144 3 153 -6z m-325 -34 c0
-8 3 -14 8 -14 11 0 30 -49 37 -95 6 -39 6 -39 -9 -15 -8 14 -15 31 -16 38 0
6 -11 35 -25 64 -29 60 -30 65 -10 48 8 -7 15 -19 15 -26z m87 -44 c11 -19 23
-53 27 -75 4 -22 10 -49 13 -60 12 -44 -15 3 -32 55 -10 30 -24 73 -32 95 -16
45 -5 38 24 -15z m703 20 c0 -15 -7 -20 -24 -20 -27 0 -41 14 -31 30 3 6 17
10 31 10 17 0 24 -5 24 -20z m-5900 -10 c8 -5 12 -11 9 -15 -9 -8 -229 -13
-229 -4 0 19 193 36 220 19z m5291 -88 c5 -20 8 -48 8 -62 0 -36 -15 -7 -34
66 -8 32 -18 68 -21 79 -3 12 4 7 16 -13 12 -18 26 -49 31 -70z m-5206 78 c3
-5 -3 -10 -15 -10 -12 0 -18 5 -15 10 3 6 10 10 15 10 5 0 12 -4 15 -10z
m2505 -80 c207 -28 270 -33 295 -22 14 7 48 12 75 12 39 0 48 -3 44 -14 -4
-10 12 -24 53 -45 64 -32 88 -54 78 -71 -9 -15 -41 -12 -161 15 -178 40 -668
115 -750 115 -51 0 -41 18 14 23 62 6 270 -2 352 -13z m-2940 -5 c0 -15 -38
-41 -47 -32 -3 3 -2 15 2 26 7 24 45 29 45 6z m1595 4 c22 -5 49 -14 60 -19
11 -4 56 -11 101 -14 93 -6 146 -26 245 -93 44 -29 72 -55 75 -70 11 -41 -7
-46 -90 -28 -60 13 -86 15 -118 7 -36 -9 -47 -8 -90 14 -41 21 -62 25 -114 22
-35 -1 -68 2 -73 7 -6 6 -11 29 -12 53 -2 23 -7 42 -11 42 -4 0 -8 -3 -8 -8 0
-20 -65 -34 -128 -29 -63 6 -85 18 -76 41 10 25 94 48 94 26 0 -5 -9 -10 -20
-10 -11 0 -20 -5 -20 -11 0 -7 14 -9 38 -5 20 3 62 8 93 12 99 11 105 35 14
54 -30 6 -55 13 -55 16 0 8 55 4 95 -7z m4605 1 c0 -5 -4 -10 -10 -10 -5 0
-10 5 -10 10 0 6 5 10 10 10 6 0 10 -4 10 -10z m-743 -52 c-3 -7 -5 -2 -5 12
0 14 2 19 5 13 2 -7 2 -19 0 -25z m73 -6 c0 -15 -2 -15 -10 -2 -13 20 -13 33
0 25 6 -3 10 -14 10 -23z m-5052 -18 c2 -16 -4 -24 -25 -31 -40 -13 -63 -6
-63 21 0 31 9 37 50 34 27 -2 36 -8 38 -24z m3550 -25 c-19 -24 -34 -35 -37
-28 -3 10 53 69 67 69 1 0 -12 -18 -30 -41z m219 9 c0 -7 1 -46 1 -85 2 -71 3
-73 27 -73 23 0 24 -2 15 -20 -9 -16 -15 -18 -31 -10 -11 6 -24 8 -31 4 -11
-7 35 -37 62 -39 8 -1 26 -2 39 -3 22 -2 23 -3 8 -19 -8 -10 -19 -35 -22 -56
-5 -27 -15 -42 -31 -49 -26 -12 -30 -23 -14 -33 6 -3 10 -17 10 -30 0 -13 9
-40 21 -59 18 -31 24 -34 41 -25 11 6 22 8 25 5 9 -9 -6 -23 -29 -29 -13 -2
-30 -7 -39 -11 -13 -6 -17 4 -22 60 -4 36 -12 73 -18 80 -15 18 -49 18 -49 0
0 -7 -7 -20 -17 -27 -15 -13 -16 -11 -10 23 3 23 1 43 -8 55 -13 17 -17 15
-64 -32 -57 -56 -67 -54 -83 17 -19 85 -19 115 -3 170 18 63 45 97 45 58 0
-13 -8 -32 -17 -42 -20 -22 -12 -31 40 -48 52 -16 46 -30 -14 -30 -43 0 -50
-2 -40 -14 8 -9 10 -28 6 -50 -10 -49 0 -59 38 -40 48 24 67 45 67 71 0 12 4
23 10 23 5 0 7 13 4 30 -5 23 -3 30 10 30 9 0 16 8 16 19 0 10 7 21 15 25 19
7 21 136 3 154 -9 9 -6 12 14 12 14 0 26 -6 25 -12z m-4140 -20 c16 -13 17
-44 3 -53 -6 -4 -24 -4 -40 0 -31 7 -49 42 -35 65 8 13 52 5 72 -12z m6053 7
c0 -8 -9 -15 -20 -15 -22 0 -27 15 -7 23 21 9 27 7 27 -8z m-2044 -32 c-4 -9
4 -32 19 -54 43 -66 33 -78 -20 -21 -35 38 -45 76 -22 85 23 10 29 7 23 -10z
m-399 -37 c17 -15 20 -22 11 -28 -24 -15 -38 -8 -53 28 -23 55 -23 55 42 0z
m643 -5 c0 -12 -40 -61 -51 -61 -5 0 -1 16 8 35 15 31 43 49 43 26z m-2131
-22 c18 -11 40 -18 48 -15 8 4 39 -1 69 -10 45 -13 53 -19 51 -37 -3 -28 32
-36 50 -11 11 15 17 16 31 7 10 -6 44 -16 75 -23 54 -11 76 -24 63 -37 -3 -3
-12 0 -21 7 -22 19 -107 15 -140 -6 l-27 -18 23 -17 24 -18 -30 -12 c-17 -6
-61 -12 -100 -13 -116 -1 -210 54 -240 140 -19 57 -4 84 49 84 24 0 55 -9 75
-21z m1569 -11 c2 -12 -34 -38 -53 -38 -11 0 -4 25 12 42 18 21 36 19 41 -4z
m57 -24 c11 -8 20 -22 20 -32 0 -9 11 -19 25 -22 16 -4 26 -14 28 -28 3 -18
-2 -22 -22 -22 -14 0 -28 -4 -31 -10 -7 -11 -120 -9 -131 2 -9 10 4 58 16 58
6 0 10 -9 10 -19 0 -29 15 -33 41 -13 20 17 21 23 12 60 -12 46 -4 53 32 26z
m-134 -7 c-1 -12 -15 -9 -19 4 -3 6 1 10 8 8 6 -3 11 -8 11 -12z m-61 -47 c0
-15 -76 -31 -107 -23 -26 6 -25 7 22 19 65 15 85 16 85 4z m1286 -15 c16 -13
17 -16 4 -25 -33 -22 -68 -6 -56 25 7 19 27 19 52 0z m-1539 -27 c-3 -8 -6 -5
-6 6 -1 11 2 17 5 13 3 -3 4 -12 1 -19z m988 12 c3 -5 -1 -10 -10 -10 -9 0
-13 5 -10 10 3 6 8 10 10 10 2 0 7 -4 10 -10z m-1648 -22 c7 -6 13 -17 13 -25
0 -12 -9 -14 -47 -8 -27 4 -49 8 -49 8 -1 1 -5 13 -9 26 -7 23 -6 24 36 17 24
-4 49 -12 56 -18z m-6164 -25 c-8 -51 -24 -91 -30 -75 -6 17 17 112 27 112 5
0 6 -17 3 -37z m6807 7 c0 -5 -4 -10 -10 -10 -5 0 -10 5 -10 10 0 6 5 10 10
10 6 0 10 -4 10 -10z m1015 -102 c28 -12 29 -16 15 -38 -7 -12 -13 -11 -34 10
-41 38 -32 51 19 28z m-7005 -33 c-10 -12 -10 -15 1 -16 8 -1 -1 -5 -20 -9
-19 -5 -44 -4 -55 0 l-21 9 21 0 c12 1 27 8 34 16 7 8 21 15 32 15 17 0 18 -3
8 -15z m6783 -83 c-6 -42 -15 -50 -42 -33 -11 7 -8 16 15 44 15 20 29 35 30
34 2 -1 0 -21 -3 -45z m-4273 -35 c65 -27 103 -58 136 -109 30 -48 31 -68 2
-42 -84 73 -142 89 -215 59 -20 -8 -38 -14 -40 -12 -2 2 4 23 12 47 8 23 15
51 15 61 0 25 22 24 90 -4z m-3163 -28 c-6 -46 -11 -54 -26 -44 -22 13 -4 85
21 85 7 0 9 -15 5 -41z m5483 31 c0 -5 -4 -10 -10 -10 -5 0 -10 5 -10 10 0 6
5 10 10 10 6 0 10 -4 10 -10z m-1235 -10 c14 -5 29 -20 34 -32 6 -17 1 -28
-25 -55 -18 -18 -38 -33 -44 -33 -6 0 -10 27 -10 65 0 68 3 71 45 55z m1320
-14 c37 -30 31 -39 -15 -23 -47 16 -61 27 -55 38 10 16 39 10 70 -15z m-5734
-34 c10 -27 -24 -106 -44 -99 -19 6 -28 80 -11 93 8 6 14 21 14 34 0 19 2 21
16 9 9 -7 20 -24 25 -37z m5041 16 l22 -32 -26 19 c-29 21 -44 45 -28 45 5 0
19 -14 32 -32z m-382 8 c0 -11 -19 -15 -25 -6 -3 5 1 10 9 10 9 0 16 -2 16 -4z
m-881 -20 c7 -8 8 -17 3 -20 -15 -9 -95 8 -100 22 -6 18 82 16 97 -2z m862
-49 c-7 -7 -12 -5 -17 7 -4 11 -1 21 7 27 17 11 26 -18 10 -34z m408 -4 c7 -3
21 -2 30 4 20 12 70 -7 64 -24 -5 -15 -53 -18 -53 -3 0 6 -8 10 -17 10 -31 0
-83 24 -83 38 0 12 4 11 23 -2 12 -9 28 -19 36 -23z m-4905 -25 c-11 -37 -72
-115 -94 -121 -22 -6 -21 -5 17 52 30 45 29 60 -2 31 -14 -13 -25 -20 -25 -16
0 16 42 61 63 68 41 12 49 9 41 -14z m5136 12 c0 -5 -9 -10 -21 -10 -11 0 -17
5 -14 10 3 6 13 10 21 10 8 0 14 -4 14 -10z m-2180 -4 c0 -11 -19 -15 -25 -6
-3 5 1 10 9 10 9 0 16 -2 16 -4z m-155 -18 c-16 -6 -34 -14 -40 -18 -13 -9
-342 -6 -351 3 -4 4 -3 8 2 8 41 6 238 16 319 17 82 0 95 -2 70 -10z m-995
-36 c0 -13 -48 -32 -81 -32 -20 0 -29 4 -27 13 7 19 108 37 108 19z m1347 -12
c6 -22 18 -26 28 -10 12 19 34 10 50 -19 13 -26 13 -33 0 -58 -17 -32 -20
-119 -5 -128 24 -15 42 18 38 67 -5 51 4 62 23 26 6 -13 19 -30 29 -38 26 -22
33 -55 15 -73 -19 -19 -19 -27 -1 -27 26 0 39 -67 32 -159 -6 -90 -20 -141
-61 -220 -68 -135 -219 -112 -284 42 -24 56 -26 78 -8 75 7 -2 12 8 13 24 1
17 12 39 29 54 25 23 27 27 12 36 -20 11 -22 34 -4 41 6 3 2 6 -9 6 -39 2 -45
21 -32 107 13 92 20 104 47 80 11 -10 28 -16 38 -14 15 3 18 15 19 83 2 119 3
125 15 125 6 0 13 -9 16 -20z m1156 -35 c5 -28 14 -59 20 -70 6 -11 12 -33 13
-50 2 -16 8 -59 14 -95 6 -36 9 -106 6 -156 -8 -134 -35 -179 -75 -127 -21 26
-19 48 4 39 14 -5 25 34 25 90 0 46 -14 43 -34 -8 -20 -51 -30 -41 -40 39 -5
36 -2 63 8 87 8 19 11 36 7 38 -5 2 -11 20 -15 41 -6 30 -4 37 10 37 12 0 14
5 8 18 -14 31 -17 142 -3 158 23 28 44 12 52 -41z m-3159 38 c4 -4 38 -7 74
-6 55 2 62 1 37 -7 -50 -16 -317 -25 -343 -11 -12 6 -22 16 -22 21 0 12 243
14 254 3z m1930 -17 c-6 -15 -24 -23 -24 -11 0 8 24 34 28 30 1 -1 0 -10 -4
-19z m-3314 -31 c-11 -13 -10 -18 6 -30 12 -9 14 -14 6 -15 -17 0 -42 25 -42
42 0 21 22 40 34 28 6 -6 4 -15 -4 -25z m70 19 c0 -8 -4 -12 -10 -9 -5 3 -10
10 -10 16 0 5 5 9 10 9 6 0 10 -7 10 -16z m5207 -31 c-1 -29 3 -48 11 -50 6
-3 12 -14 11 -26 0 -15 -8 -7 -24 28 -27 58 -32 95 -11 95 11 0 14 -12 13 -47z
m-1321 -3 c24 0 44 -5 44 -10 0 -6 -19 -9 -47 -6 -27 2 -54 5 -60 5 -7 1 -13
6 -13 12 0 6 7 8 16 5 9 -3 36 -6 60 -6z m-908 -20 c12 -12 22 -27 22 -35 0
-7 3 -20 6 -29 10 -25 -40 -66 -80 -66 -67 0 -99 78 -51 125 30 31 73 32 103
5z m1132 12 c57 -9 61 -33 8 -46 -28 -7 -47 -5 -80 7 -24 10 -53 17 -65 17
-23 0 -37 13 -26 24 8 8 104 7 163 -2z m-4075 -12 c-3 -5 -14 -10 -23 -10 -15
0 -15 2 -2 10 20 13 33 13 25 0z m663 -12 c17 -17 16 -78 -2 -78 -7 0 -19 7
-26 15 -15 19 -40 20 -40 2 0 -14 19 -35 60 -66 l25 -19 -27 5 c-14 3 -36 14
-48 25 -18 17 -21 27 -16 61 4 23 12 47 18 54 13 16 40 17 56 1z m3510 0 c-6
-18 -28 -21 -28 -4 0 9 7 16 16 16 9 0 14 -5 12 -12z m875 -5 c8 -14 -25 -83
-39 -83 -17 0 -17 2 -5 32 5 13 12 31 15 41 6 17 21 23 29 10z m187 -107 c0
-15 -3 -16 -15 -6 -8 7 -15 24 -15 38 0 25 1 25 15 6 8 -10 15 -27 15 -38z
m-2477 -11 c15 -19 24 -35 19 -35 -16 0 -62 41 -62 56 0 23 13 16 43 -21z
m2332 -33 c14 -6 25 -18 25 -26 0 -8 6 -17 13 -19 6 -3 1 -6 -13 -6 -54 -2
-97 50 -77 92 l12 26 7 -28 c4 -15 19 -33 33 -39z m112 -6 c-4 -9 -11 -16 -17
-16 -11 0 -14 33 -3 44 11 10 26 -11 20 -28z m-1777 -493 c-40 -51 -99 -67
-155 -41 -40 18 -29 24 38 20 55 -3 65 -1 92 22 39 34 52 33 25 -1z"/>
<path d="M13555 5410 c-5 -8 1 -50 24 -170 10 -54 38 -52 46 4 4 24 3 51 -1
58 -5 7 -7 22 -6 33 3 22 -32 85 -47 85 -6 0 -13 -4 -16 -10z"/>
<path d="M12020 4881 c0 -13 29 -35 37 -28 7 8 -15 37 -28 37 -5 0 -9 -4 -9
-9z"/>
<path d="M9996 5008 c-4 -22 -1 -37 10 -50 25 -27 42 -23 36 10 -4 26 -4 26
24 -10 16 -20 35 -40 43 -43 16 -6 91 12 91 23 0 15 -51 82 -63 82 -7 0 -18
-4 -26 -9 -12 -8 -54 1 -92 20 -13 6 -18 1 -23 -23z"/>
<path d="M10235 4930 c-3 -5 1 -10 10 -10 9 0 13 5 10 10 -3 6 -8 10 -10 10
-2 0 -7 -4 -10 -10z"/>
<path d="M7720 4230 c0 -13 5 -20 13 -17 6 2 12 10 12 17 0 7 -6 15 -12 18 -8
2 -13 -5 -13 -18z"/>
<path d="M7781 4154 c0 -11 3 -14 6 -6 3 7 2 16 -1 19 -3 4 -6 -2 -5 -13z"/>
<path d="M7842 4093 c-31 -6 -37 -27 -22 -74 17 -51 36 -50 43 4 3 24 9 51 13
60 3 9 2 16 -2 16 -5 -1 -19 -4 -32 -6z"/>
<path d="M7750 4041 c0 -6 5 -13 10 -16 6 -3 10 1 10 9 0 9 -4 16 -10 16 -5 0
-10 -4 -10 -9z"/>
<path d="M7790 3933 c0 -24 6 -46 15 -53 23 -19 28 -6 15 37 -18 57 -30 63
-30 16z"/>
<path d="M7688 3898 c-8 -13 -20 -38 -28 -56 -15 -39 -5 -52 40 -52 19 0 29 8
40 33 l14 32 8 -25 c5 -16 6 -7 3 25 -6 53 -25 87 -26 45 l0 -25 -9 23 c-5 12
-13 22 -19 22 -5 0 -15 -10 -23 -22z"/>
<path d="M7340 4331 c0 -6 -12 -14 -26 -17 l-26 -7 21 -20 c18 -19 23 -20 35
-7 19 20 24 52 9 57 -7 3 -13 0 -13 -6z"/>
<path d="M6320 5950 c0 -5 7 -10 15 -10 8 0 15 5 15 10 0 6 -7 10 -15 10 -8 0
-15 -4 -15 -10z"/>
<path d="M11630 5936 c-146 -50 -244 -120 -338 -239 -69 -88 -97 -136 -85
-148 14 -14 94 11 101 31 9 24 24 30 85 30 42 0 57 -4 57 -14 0 -10 21 -15 78
-20 212 -15 212 -15 252 -57 39 -41 67 -49 77 -23 4 11 13 14 30 9 25 -6 25
-5 19 37 -4 24 -10 77 -15 118 -19 153 -55 271 -89 289 -32 17 -101 12 -172
-13z m143 -246 l36 -35 -22 -20 c-19 -17 -33 -20 -111 -17 -92 2 -120 12 -98
34 18 18 15 26 -10 30 -12 2 -23 9 -26 16 -6 20 39 32 119 29 73 -2 79 -4 112
-37z"/>
<path d="M7742 5815 c-6 -22 -18 -105 -27 -185 -17 -150 -19 -160 -36 -160 -6
0 -8 17 -4 44 9 55 -1 86 -26 86 -10 0 -19 5 -19 10 0 6 5 10 10 10 6 0 10 12
10 28 0 22 -8 32 -42 50 -41 22 -45 23 -80 8 -21 -9 -55 -16 -77 -16 -22 0
-41 -5 -43 -11 -2 -7 -22 -9 -60 -4 -50 6 -58 10 -69 36 -11 28 -13 29 -30 13
-11 -10 -19 -25 -19 -34 0 -11 -11 -20 -30 -23 -23 -5 -30 -12 -30 -30 0 -31
-23 -62 -42 -54 -8 3 -18 19 -21 36 -4 17 -14 34 -23 38 -16 6 -73 -18 -106
-45 -19 -16 -101 -38 -213 -57 -44 -7 -107 -23 -139 -35 -33 -12 -73 -21 -90
-21 -17 0 -60 -7 -96 -14 -36 -8 -78 -16 -95 -18 -16 -2 155 -2 380 -1 423 2
501 6 536 25 17 9 28 7 56 -8 31 -16 36 -17 61 -3 23 14 31 14 52 3 14 -8 37
-11 53 -8 87 17 89 17 84 36 -6 22 22 26 41 7 17 -17 15 -28 -4 -28 -10 0 -14
-7 -12 -22 3 -21 10 -23 62 -26 53 -3 62 0 87 24 l29 28 -1 160 c0 177 -9 229
-27 161z"/>
<path d="M5889 5681 c-19 -21 -72 -84 -119 -139 -47 -56 -88 -101 -92 -102 -5
0 -8 7 -8 15 0 8 -6 15 -12 16 -7 0 -3 4 10 9 28 12 29 37 0 45 -11 4 -31 18
-44 32 -19 20 -29 24 -54 18 -39 -9 -61 -42 -69 -107 -6 -49 -8 -53 -45 -67
-37 -14 -39 -14 -57 10 -16 22 -24 24 -96 22 -43 -1 -120 -5 -170 -8 l-93 -7
0 51 c0 28 -4 51 -10 51 -13 0 -94 -139 -86 -148 4 -4 104 -7 223 -7 201 0
215 -1 229 -20 14 -19 16 -19 77 -3 34 10 125 24 202 33 77 9 142 18 144 21 2
2 -21 4 -52 4 -31 0 -59 4 -62 10 -8 13 40 83 129 190 92 110 99 120 93 120
-2 0 -20 -17 -38 -39z m-219 -261 c0 -5 -4 -10 -10 -10 -5 0 -10 5 -10 10 0 6
5 10 10 10 6 0 10 -4 10 -10z"/>
<path d="M4782 5693 c-18 -2 -30 -9 -26 -14 3 -5 -12 -17 -33 -25 -87 -36
-107 -50 -195 -136 -66 -66 -88 -92 -78 -98 20 -12 213 -23 273 -16 89 12 127
37 199 134 87 117 101 139 93 152 -6 10 -160 12 -233 3z"/>
<path d="M11440 5406 c0 -22 37 -30 55 -12 22 22 19 26 -20 26 -24 0 -35 -5
-35 -14z"/>
<path d="M11142 5399 c2 -7 10 -15 17 -17 8 -3 12 1 9 9 -2 7 -10 15 -17 17
-8 3 -12 -1 -9 -9z"/>
<path d="M7060 5319 c-201 -19 -290 -31 -300 -45 -9 -10 -3 -15 27 -23 64 -18
98 -44 113 -90 11 -34 18 -41 33 -37 10 2 107 12 215 22 203 17 237 26 205 50
-14 10 -53 12 -158 9 -77 -2 -126 -1 -110 1 17 3 60 16 98 30 49 19 67 31 67
44 0 10 3 25 6 34 7 18 -32 19 -196 5z m-70 -109 c0 -5 -12 -10 -27 -10 -22 0
-25 2 -13 10 20 13 40 13 40 0z"/>
<path d="M5430 5210 c0 -5 9 -10 20 -10 11 0 20 5 20 10 0 6 -9 10 -20 10 -11
0 -20 -4 -20 -10z"/>
<path d="M3890 5195 c-7 -8 -18 -15 -25 -15 -11 0 -25 -20 -25 -36 0 -2 11 -4
25 -4 15 0 25 6 25 14 0 8 12 24 26 35 24 19 25 21 7 21 -11 0 -26 -7 -33 -15z"/>
<path d="M5919 5199 c-315 -13 -423 -28 -396 -56 4 -4 234 -1 510 5 276 7 546
12 600 12 88 0 98 2 95 18 -2 13 -17 19 -58 24 -74 8 -509 7 -751 -3z"/>
<path d="M3740 5170 c-8 -5 -28 -10 -44 -10 -25 0 -28 -3 -24 -24 3 -17 0 -27
-11 -31 -14 -6 -14 -7 2 -16 9 -6 17 -17 17 -24 0 -18 20 -19 72 -3 27 8 37
16 33 26 -3 8 -1 20 5 27 7 9 7 21 0 39 -10 27 -25 32 -50 16z m20 -84 c-6 -8
-18 -12 -26 -9 -23 9 -16 23 12 23 22 0 24 -2 14 -14z"/>
<path d="M5190 5137 c-25 -7 -44 -16 -43 -22 3 -11 1 -11 143 -16 105 -4 105
-4 105 20 0 22 -3 23 -80 26 -44 2 -100 -2 -125 -8z"/>
<path d="M6395 5110 c-115 -4 -336 -8 -490 -10 -314 -3 -433 -10 -425 -25 3
-5 7 -9 10 -8 3 1 13 5 23 8 15 6 17 3 14 -26 -2 -19 -9 -47 -16 -62 -6 -16
-11 -36 -11 -46 0 -10 -3 -21 -7 -25 -7 -7 -9 -15 -22 -110 -15 -112 -45 -101
269 -104 270 -3 1019 14 1028 23 3 2 -1 11 -8 20 -7 8 -8 15 -3 15 6 0 9 24 8
53 -1 28 -3 52 -4 52 -1 0 -4 15 -7 34 -2 19 -9 40 -14 47 -6 6 -10 16 -9 20
1 5 0 11 -1 14 -4 11 -10 57 -11 98 l-2 42 -56 -2 c-31 -1 -150 -5 -266 -8z
m-193 -150 c26 -28 26 -76 0 -100 -12 -11 -27 -20 -34 -19 -10 0 -10 2 0 6 13
5 16 51 4 70 -6 9 -15 9 -37 -4 -27 -14 -92 -19 -104 -7 -2 2 4 10 14 18 11 8
16 19 12 30 -6 14 -11 15 -28 6 -11 -6 -18 -17 -15 -25 2 -7 -4 -15 -15 -18
-26 -7 -24 -30 7 -66 23 -28 24 -31 7 -31 -22 0 -53 48 -53 82 0 61 56 90 159
83 48 -3 69 -10 83 -25z m-102 -140 c11 -7 4 -10 -25 -9 -31 0 -36 2 -20 9 26
11 28 11 45 0z"/>
<path d="M6100 4960 c0 -5 -7 -10 -15 -10 -8 0 -15 -7 -15 -15 0 -8 5 -15 10
-15 6 0 10 5 10 11 0 8 4 8 14 0 13 -11 46 -5 46 8 0 12 -23 31 -37 31 -7 0
-13 -4 -13 -10z"/>
<path d="M3535 5100 c-3 -5 -1 -10 4 -10 6 0 11 5 11 10 0 6 -2 10 -4 10 -3 0
-8 -4 -11 -10z"/>
<path d="M3461 5056 c-12 -13 -18 -27 -13 -30 5 -3 16 1 23 10 8 10 21 13 36
9 21 -5 22 -4 11 15 -17 26 -30 25 -57 -4z"/>
<path d="M4801 5058 c-11 -29 5 -60 27 -56 21 4 28 44 12 64 -17 20 -29 18
-39 -8z"/>
<path d="M2601 4876 c-12 -14 -12 -31 -3 -99 12 -85 19 -95 87 -142 46 -31
501 -49 605 -23 75 19 88 43 73 134 -16 94 -36 111 -138 123 -44 6 -199 13
-345 17 -240 6 -267 5 -279 -10z"/>
<path d="M3762 4764 c-5 -11 -7 -24 -5 -31 2 -6 -1 -14 -6 -18 -6 -3 -11 -17
-11 -31 0 -19 5 -25 18 -22 12 2 19 17 23 53 7 54 -3 79 -19 49z"/>
<path d="M3625 4574 c-71 -12 -146 -28 -166 -33 -21 -7 -138 -11 -280 -11
-223 0 -285 4 -476 25 l-63 8 0 -34 c0 -19 4 -40 9 -47 8 -14 15 -16 116 -31
35 -6 87 -24 125 -45 91 -49 171 -57 268 -27 39 13 82 31 95 41 21 17 26 18
43 5 35 -26 284 -11 348 21 16 8 31 14 33 14 1 0 3 -18 3 -39 0 -22 4 -42 8
-45 5 -3 52 -7 104 -8 77 -2 99 0 122 15 24 16 27 23 22 52 -5 24 -1 45 14 71
l20 38 -43 12 c-23 7 -60 19 -82 28 -50 19 -62 19 -220 -10z"/>
<path d="M1485 4550 c55 -5 133 -14 173 -20 56 -9 85 -9 122 0 27 6 54 9 60 5
37 -23 -30 -75 -99 -75 -24 0 -70 7 -103 15 -57 15 -61 15 -93 -5 -28 -17 -45
-38 -45 -56 0 -13 30 -1 35 15 7 23 35 35 48 22 6 -6 5 -20 -4 -39 -12 -27
-16 -29 -54 -24 -47 5 -42 8 -110 -84 -47 -65 -92 -94 -144 -94 -66 0 -94 82
-46 134 40 43 67 31 32 -16 -26 -34 -15 -61 26 -66 20 -3 39 8 77 44 52 49 60
64 35 64 -8 0 -15 4 -15 9 0 6 -19 11 -42 13 -37 3 -44 7 -53 31 -14 41 18 96
65 113 l35 12 -41 1 c-23 1 -54 -3 -70 -8 -16 -5 -56 -17 -89 -26 -149 -44
-225 -99 -225 -164 0 -47 100 -120 215 -159 32 -11 153 -34 273 -51 143 -21
289 -14 512 26 100 17 125 25 206 64 118 57 150 125 89 190 -41 42 -90 63
-280 119 -25 8 -141 13 -315 15 -204 3 -249 1 -175 -5z m561 -113 c2 -7 -20
-51 -51 -97 -70 -108 -74 -139 -11 -85 31 27 48 26 26 0 -7 -9 -26 -25 -42
-36 -25 -18 -33 -19 -58 -9 -19 8 -34 9 -46 2 -25 -14 -54 -3 -65 25 -6 17
-14 23 -26 19 -8 -4 -26 0 -39 8 -21 14 -24 13 -49 -19 -14 -19 -33 -35 -41
-35 -11 0 -9 11 11 51 15 28 24 56 22 62 -2 7 -29 -13 -58 -45 -72 -75 -87
-82 -130 -59 -19 10 -40 16 -46 14 -18 -6 -16 12 2 27 8 7 15 18 15 25 0 23
60 75 86 75 13 0 24 -2 24 -4 0 -2 -16 -20 -36 -40 -37 -37 -40 -52 -11 -70
24 -16 57 21 60 67 3 45 10 52 35 36 18 -11 24 -10 40 4 20 19 57 23 67 7 4
-6 15 -5 30 2 31 14 59 -5 49 -35 -7 -22 6 -18 43 16 17 15 31 19 63 14 39 -5
42 -3 68 36 37 58 57 71 68 44z"/>
<path d="M1861 4304 c-27 -34 -28 -64 -1 -64 21 0 46 32 52 65 5 30 -27 30
-51 -1z"/>
<path d="M1746 4313 c-3 -3 -3 -10 0 -14 7 -12 44 -12 44 0 0 10 -36 21 -44
14z"/>
<path d="M1375 4498 c-26 -14 -46 -39 -39 -49 8 -14 36 -10 55 7 29 26 42 7
19 -26 -26 -37 -25 -42 6 -29 36 13 106 92 90 101 -17 12 -108 9 -131 -4z"/>
<path d="M12953 4424 c-39 -17 -43 -28 -50 -149 -3 -55 -11 -106 -16 -113 -8
-10 -7 -16 6 -23 9 -6 17 -18 18 -27 0 -12 3 -11 9 6 11 25 32 29 49 8 14 -16
11 -215 -2 -223 -16 -10 -32 18 -43 75 l-11 57 -2 -71 c-1 -72 8 -94 41 -94 9
0 21 -7 26 -16 8 -14 10 -14 21 0 8 9 22 16 32 16 28 0 39 39 38 128 -1 82 -4
78 -27 -50 -4 -28 -12 -43 -22 -43 -12 0 -16 20 -18 109 -3 119 2 130 49 120
18 -3 28 0 32 10 4 9 3 18 -2 20 -4 3 -6 29 -3 59 2 30 -1 86 -7 124 -12 68
-13 69 -50 79 -27 7 -45 7 -68 -2z m19 -139 c-4 -114 -9 -132 -37 -121 -15 5
-16 18 -10 114 4 59 10 111 12 115 3 4 12 7 21 5 15 -3 16 -17 14 -113z m62
106 c3 -5 11 -55 17 -111 12 -110 6 -135 -28 -114 -14 9 -18 29 -19 115 -1 57
1 107 3 112 6 10 21 9 27 -2z"/>
<path d="M916 4388 c-70 -165 330 -314 790 -294 305 13 547 90 616 194 19 29
23 88 8 112 -7 11 -10 4 -10 -26 0 -59 -44 -113 -125 -153 -45 -22 -136 -51
-160 -51 -8 0 -23 -4 -33 -9 -43 -23 -177 -36 -377 -36 -200 0 -334 13 -377
36 -10 5 -25 9 -33 9 -9 0 -40 7 -68 16 -149 45 -225 115 -214 195 6 47 1 50
-17 7z"/>
<path d="M3733 3853 c-7 -3 -13 -19 -13 -36 0 -56 -11 -79 -31 -73 -62 19 -59
20 -59 -11 0 -26 5 -31 40 -42 33 -10 44 -9 61 3 20 13 20 15 2 25 -16 9 -16
10 -1 11 11 0 20 11 24 28 3 15 7 32 9 37 1 6 8 -2 15 -18 13 -28 50 -45 69
-32 6 3 11 28 11 56 0 37 -4 49 -15 49 -9 0 -15 -9 -15 -24 0 -36 -14 -39 -33
-7 -17 29 -41 41 -64 34z"/>
<path d="M3962 3850 c-36 -15 -26 -51 18 -64 l35 -10 -33 -5 c-44 -8 -46 -25
-3 -29 55 -5 81 5 81 33 0 18 -8 27 -36 37 l-37 13 29 5 c16 3 29 10 29 15 0
13 -54 16 -83 5z"/>
<path d="M4113 3853 c-25 -5 -38 -32 -23 -47 6 -6 25 -16 43 -23 l32 -11 -38
-1 c-52 -1 -44 -25 9 -29 80 -6 96 48 22 74 l-33 12 33 1 c22 1 32 5 30 14 -5
13 -39 18 -75 10z"/>
<path d="M4279 3853 c-18 -4 -62 -90 -53 -104 3 -5 18 -2 35 8 28 17 32 17 59
1 39 -22 45 -9 18 46 -22 47 -32 55 -59 49z m21 -48 c0 -8 -4 -15 -10 -15 -5
0 -10 7 -10 15 0 8 5 15 10 15 6 0 10 -7 10 -15z"/>
<path d="M3882 3798 c4 -74 28 -77 28 -4 0 44 -3 56 -16 56 -12 0 -14 -10 -12
-52z"/>
<path d="M4387 3843 c-11 -11 -8 -91 4 -98 13 -9 19 -3 24 25 7 34 10 34 39
-5 16 -21 36 -35 48 -35 21 0 21 0 3 -14 -19 -14 -19 -15 6 -26 19 -9 36 -9
67 0 39 10 42 13 42 45 0 19 -2 35 -5 35 -3 0 -23 -9 -44 -20 l-39 -19 -6 59
c-5 43 -11 60 -21 60 -9 0 -15 -10 -15 -25 0 -14 -4 -25 -10 -25 -5 0 -17 11
-26 25 -15 24 -52 34 -67 18z"/>
<path d="M9899 3772 c-10 -7 -18 -23 -17 -35 0 -12 -1 -29 -3 -37 -4 -13 42
-15 365 -15 l370 0 0 40 1 40 55 0 c52 0 55 -1 54 -25 0 -14 -3 -32 -5 -40 -3
-11 4 -15 26 -15 28 0 30 2 27 35 -5 54 -20 63 -106 62 -42 0 -80 -1 -86 -1
-5 -1 -10 -8 -10 -18 0 -15 -1 -15 -18 0 -26 24 -170 26 -187 3 -11 -14 -14
-15 -25 -1 -18 22 -27 18 -33 -15 l-6 -30 -81 0 c-63 0 -82 3 -87 15 -9 24 3
30 80 35 l72 6 -80 4 c-67 4 -83 2 -97 -12 -14 -14 -35 -18 -92 -18 -98 0
-109 18 -14 22 l73 3 -79 5 c-55 4 -84 1 -97 -8z m615 -18 c10 -26 -3 -34 -59
-34 -54 0 -75 16 -52 39 18 18 104 14 111 -5z"/>
<path d="M6028 3763 c6 -2 18 -2 25 0 6 3 1 5 -13 5 -14 0 -19 -2 -12 -5z"/>
<path d="M6665 3760 c-3 -5 1 -10 10 -10 9 0 13 5 10 10 -3 6 -8 10 -10 10 -2
0 -7 -4 -10 -10z"/>
<path d="M6726 3761 c-3 -5 0 -11 7 -14 19 -7 68 4 61 14 -7 12 -61 12 -68 0z"/>
<path d="M9800 3693 c0 -27 45 -112 77 -148 43 -47 171 -125 206 -125 7 0 -11
12 -39 28 -99 52 -162 123 -187 207 -10 38 -19 51 -35 53 -16 2 -22 -2 -22
-15z"/>
<path d="M10807 3703 c-2 -5 -7 -24 -11 -44 -12 -70 -112 -177 -206 -222 -49
-23 -21 -21 34 3 56 24 63 29 143 107 35 35 63 71 63 82 0 11 5 23 10 26 6 3
10 17 10 31 0 17 -5 24 -19 24 -11 0 -22 -3 -24 -7z"/>
<path d="M3780 3692 c0 -5 6 -16 13 -26 12 -17 14 -17 20 -2 5 13 22 16 89 17
74 1 78 2 38 10 -60 10 -160 11 -160 1z"/>
<path d="M4325 3690 c-34 -6 -30 -7 33 -9 57 -1 74 -4 79 -17 6 -15 8 -15 20
2 7 10 13 21 13 26 0 9 -88 8 -145 -2z"/>
<path d="M12384 3647 c-2 -7 0 -24 5 -38 9 -22 10 -21 10 14 1 37 -5 48 -15
24z"/>
<path d="M12563 3595 c0 -38 2 -53 4 -32 2 20 2 52 0 70 -2 17 -4 1 -4 -38z"/>
<path d="M12676 3652 c-12 -20 6 -49 30 -49 28 0 29 1 8 32 -17 26 -29 31 -38
17z"/>
<path d="M12770 3631 c0 -17 2 -31 4 -31 8 0 13 51 5 56 -5 3 -9 -9 -9 -25z"/>
<path d="M12896 3644 c-9 -8 -16 -23 -16 -32 0 -12 4 -11 21 7 17 18 29 22 55
18 26 -4 32 -2 27 9 -7 19 -67 18 -87 -2z"/>
<path d="M13103 3648 c-12 -16 -24 -48 -18 -48 3 0 14 9 25 20 33 33 75 20 93
-30 3 -9 6 -4 6 12 1 15 -6 34 -15 42 -18 19 -78 21 -91 4z"/>
<path d="M13310 3595 l0 -65 43 1 c27 1 33 3 17 6 -43 8 -51 21 -44 74 5 34 3
49 -5 49 -7 0 -11 -23 -11 -65z"/>
<path d="M13480 3629 c0 -20 4 -29 13 -26 6 2 20 0 30 -5 23 -12 22 3 -4 36
-27 34 -39 33 -39 -5z"/>
<path d="M13580 3635 c0 -15 4 -24 10 -20 6 3 10 12 10 20 0 8 -4 17 -10 20
-6 4 -10 -5 -10 -20z"/>
<path d="M7100 3625 c0 -8 7 -15 16 -15 14 0 14 3 4 15 -7 8 -14 15 -16 15 -2
0 -4 -7 -4 -15z"/>
<path d="M3860 3573 c0 -23 111 -98 133 -90 6 2 -7 13 -29 25 -23 12 -55 33
-73 47 -17 15 -31 23 -31 18z"/>
<path d="M12757 3574 c-8 -8 3 -34 14 -34 5 0 9 9 9 20 0 19 -11 26 -23 14z"/>
<path d="M13562 3558 c6 -18 28 -21 28 -4 0 9 -7 16 -16 16 -9 0 -14 -5 -12
-12z"/>
<path d="M12390 3546 c0 -12 9 -16 38 -15 27 1 30 3 12 6 -14 3 -31 10 -37 15
-10 8 -13 6 -13 -6z"/>
<path d="M12900 3545 c7 -8 27 -14 44 -14 27 2 28 2 6 6 -14 3 -29 9 -34 14
-16 15 -29 10 -16 -6z"/>
<path d="M13110 3546 c18 -23 80 -18 80 5 0 5 -9 4 -19 -3 -15 -9 -25 -9 -47
1 -24 11 -26 10 -14 -3z"/>
<path d="M7207 3473 c-14 -86 -119 -208 -222 -258 -76 -37 -225 -70 -225 -51
0 3 11 26 25 52 14 26 25 60 25 76 0 28 -1 28 -17 12 -30 -29 -72 -42 -112
-33 -20 5 -39 9 -43 9 -15 0 -8 -45 12 -75 27 -41 26 -45 -18 -45 -79 0 -275
79 -344 138 -35 30 -17 -7 23 -47 179 -179 636 -172 820 12 67 67 116 195 90
235 -5 9 -10 1 -14 -25z"/>
<path d="M6645 3480 c-3 -5 1 -10 10 -10 9 0 13 5 10 10 -3 6 -8 10 -10 10 -2
0 -7 -4 -10 -10z"/>
<path d="M3960 3445 c0 -13 93 -56 132 -61 68 -9 68 11 1 31 -32 9 -68 21 -81
26 -24 10 -52 12 -52 4z"/>
<path d="M3225 2943 c-98 -4 -416 -32 -500 -44 -116 -16 -185 -38 -249 -80
-33 -22 -50 -37 -36 -32 69 22 190 -1 160 -31 -5 -5 -10 -18 -10 -28 0 -10 -4
-18 -9 -18 -15 0 -24 -40 -12 -54 19 -23 -12 -40 -50 -27 -33 11 -322 17 -339
6 -5 -3 -92 -13 -192 -20 -99 -8 -224 -24 -277 -36 -100 -23 -119 -26 -316
-53 -251 -35 -363 -68 -419 -121 -36 -34 -52 -84 -43 -131 4 -24 -21 -115 -36
-130 -6 -6 2 -32 46 -153 30 -83 93 -181 148 -233 23 -21 28 -32 23 -56 -8
-40 16 -62 67 -62 32 0 45 -6 62 -27 59 -71 155 -143 193 -143 7 0 19 -6 26
-13 34 -34 129 -60 261 -72 66 -6 77 -5 77 8 0 17 -37 57 -52 57 -4 0 -8 5 -8
10 0 6 7 10 15 10 8 0 38 22 65 48 l50 48 502 0 502 -1 19 -50 c11 -27 20 -68
21 -90 l1 -39 45 -2 c25 -1 65 -6 90 -13 56 -13 131 -14 164 -2 16 7 34 6 54
-1 27 -10 38 -8 97 22 39 20 81 34 100 33 27 -1 32 2 28 17 -3 10 7 38 21 63
15 24 33 67 41 95 17 55 16 55 105 67 25 3 125 26 223 50 98 25 180 45 183 45
2 0 4 -9 4 -20 0 -11 -4 -20 -8 -20 -5 0 -26 -15 -48 -33 -30 -26 -52 -35 -93
-40 -81 -9 -85 -16 -76 -117 9 -102 9 -111 5 -275 -2 -126 -1 -133 30 -213 38
-99 110 -183 197 -233 l57 -31 -24 -20 c-13 -10 -19 -22 -14 -26 5 -4 99 -6
209 -4 l200 4 -45 18 c-50 20 -64 40 -27 40 41 0 90 21 146 64 67 50 92 89
126 193 l28 81 51 7 c92 13 247 8 292 -10 39 -15 45 -15 73 -1 16 9 48 16 70
16 32 0 49 -8 93 -46 51 -44 55 -45 105 -42 35 3 66 14 94 32 53 36 111 44
153 23 17 -8 39 -17 48 -20 18 -6 33 -73 26 -118 -3 -24 -4 -24 -88 -19 -47 3
-218 5 -380 5 -256 0 -304 -3 -365 -19 -85 -23 -89 -24 -75 -41 31 -37 309
-43 800 -16 l125 6 65 -69 c36 -38 90 -87 120 -109 l54 -41 156 2 c85 2 163 5
174 8 43 14 148 124 191 202 18 31 47 94 65 140 33 82 33 85 23 170 -5 48 -8
92 -6 99 8 21 33 23 68 6 30 -14 41 -15 68 -5 55 20 81 15 100 -17 9 -16 17
-43 17 -60 0 -43 33 -104 72 -135 l33 -26 -22 -15 c-14 -10 -23 -27 -23 -42 0
-24 2 -25 33 -19 25 6 189 24 230 26 5 0 -1 14 -14 31 l-21 30 21 15 c29 21
40 45 65 144 15 57 23 124 25 196 2 87 6 115 22 140 22 36 24 92 9 246 -16
154 -19 168 -47 196 -19 19 -28 40 -31 77 -3 27 -14 62 -25 77 -18 24 -24 26
-67 21 -65 -8 -81 10 -79 90 0 34 -10 125 -24 202 -14 77 -26 157 -26 179 -3
76 -55 126 -132 126 -19 0 -34 9 -48 29 -27 38 -86 51 -214 48 -73 -1 -96 -5
-92 -14 7 -19 -12 -390 -26 -508 -12 -106 -33 -170 -51 -159 -35 22 -407 -13
-494 -46 -24 -9 -22 -11 -90 73 -20 24 -33 21 -45 -10 -9 -24 -6 -36 16 -79
18 -34 25 -59 20 -73 -8 -28 17 -28 85 -1 82 32 325 24 453 -16 27 -9 20 -24
-13 -24 -16 0 -52 -5 -80 -11 -42 -9 -55 -17 -79 -53 -17 -24 -34 -68 -41
-103 -8 -40 -18 -64 -29 -68 -9 -4 -96 -3 -193 1 -207 8 -194 -3 -149 126 17
45 27 85 24 88 -3 3 -8 -1 -10 -7 -3 -7 -13 -13 -23 -13 -14 0 -22 -18 -39
-85 -11 -46 -21 -100 -21 -120 0 -47 -11 -44 -35 8 -19 39 -23 42 -59 42 -31
0 -43 -6 -60 -28 -17 -23 -19 -32 -9 -57 11 -28 2 -42 -12 -20 -3 6 -35 10
-69 10 l-64 0 -5 33 c-3 17 0 96 6 174 9 114 8 145 -2 157 -16 20 -55 21 -70
2 -9 -11 -40 -253 -41 -322 0 -13 10 -25 25 -32 31 -14 32 -28 3 -38 -37 -11
-48 18 -47 125 0 53 3 128 7 168 10 91 2 113 -37 113 -42 0 -49 -19 -61 -157
-5 -65 -12 -134 -16 -154 -5 -32 -2 -39 24 -58 17 -11 36 -21 43 -21 10 0 9
-4 -3 -16 -14 -14 -20 -14 -44 -3 -45 22 -49 51 -36 224 6 85 9 161 6 169 -7
19 -27 26 -53 19 -26 -7 -36 -44 -50 -187 -16 -162 -16 -162 24 -189 37 -25
37 -37 0 -37 -57 0 -66 52 -51 282 l9 127 -27 7 c-45 11 -56 -11 -72 -142 -7
-66 -14 -140 -14 -166 0 -43 3 -49 36 -72 34 -23 35 -24 14 -31 -13 -4 -33 -2
-46 6 -40 21 -40 29 -18 305 6 77 5 83 -15 93 -27 15 -59 -1 -66 -32 -3 -12
-12 -85 -20 -162 l-14 -140 37 -32 c32 -28 35 -33 18 -39 -23 -9 -47 5 -64 37
-13 24 -12 75 4 275 6 77 5 83 -15 93 -28 16 -58 -1 -65 -36 -3 -16 -13 -89
-21 -163 l-14 -135 36 -31 c30 -27 33 -32 18 -38 -28 -10 -63 20 -71 60 -4 20
-1 98 6 174 7 75 10 145 7 154 -7 19 -62 22 -73 4 -9 -15 -43 -309 -37 -324 2
-6 15 -17 28 -24 37 -20 40 -40 5 -40 -23 0 -33 7 -45 30 -14 27 -20 30 -64
30 -47 0 -50 2 -68 38 -24 46 -63 55 -98 22 -22 -20 -23 -21 -28 -3 -13 41
-19 135 -12 181 5 37 16 61 42 91 19 23 41 41 49 41 10 0 9 -5 -5 -19 -78 -78
-62 -188 33 -238 29 -15 76 -11 76 7 0 6 -13 10 -29 10 -62 0 -115 78 -76 110
25 21 65 -6 65 -42 0 -36 26 -38 42 -3 6 14 15 26 20 26 19 3 24 5 36 12 19
13 5 26 -28 25 -18 -1 -30 -6 -30 -15 0 -15 -26 -18 -35 -4 -3 6 2 14 11 19
28 16 7 30 -36 25 -33 -5 -40 -3 -40 11 0 24 37 56 65 56 15 0 39 -7 55 -15
17 -9 30 -12 30 -8 0 17 -17 33 -49 46 l-34 15 24 13 c19 11 131 14 573 14
302 0 532 3 510 8 -69 13 -749 19 -924 8 -91 -6 -181 -13 -200 -16 l-35 -6 30
20 c49 32 141 52 240 52 77 0 87 2 73 13 -10 7 -18 19 -18 25 0 7 -6 11 -12 8
-7 -2 -12 -9 -11 -14 1 -6 -17 -10 -40 -10 -23 -1 -67 -5 -97 -11 -64 -14 -69
-9 -71 63 -2 82 -10 98 -59 117 -68 26 -135 23 -188 -8 -50 -30 -52 -30 -497
2 -115 8 -325 17 -465 20 -170 4 -255 9 -255 16 0 24 55 50 126 61 59 8 101 7
208 -7 73 -9 146 -23 162 -31 32 -17 69 -20 69 -5 0 13 61 1 81 -17 18 -16 47
-7 90 28 20 16 49 23 135 30 60 6 111 14 114 18 8 13 58 22 62 11 2 -6 41 -7
103 -2 l100 7 -40 27 c-22 14 -53 41 -70 58 -89 94 -156 155 -208 191 -32 21
-62 39 -66 39 -14 0 -61 25 -61 33 0 4 -18 4 -40 1 -27 -4 -40 -3 -40 5 0 6 6
11 13 11 6 0 -1 7 -16 15 -33 17 -140 32 -118 17 7 -5 12 -15 10 -21 -2 -6
-16 -1 -33 14 -28 24 -33 25 -165 23 -75 -1 -167 -3 -206 -5z m767 -190 c27
-29 68 -92 68 -105 0 -5 -7 -8 -15 -8 -8 0 -15 6 -15 14 0 8 -12 24 -27 36
-25 20 -36 21 -93 16 -114 -12 -131 -7 -90 24 27 21 85 27 95 10 13 -21 32
-10 27 15 -6 34 17 33 50 -2z m-206 -129 c-3 -8 -9 -14 -14 -14 -9 0 -5 54 6
80 8 19 16 -46 8 -66z m-1863 -51 c-13 -2 -35 -2 -50 0 -16 2 -5 4 22 4 28 0
40 -2 28 -4z m390 -10 c-13 -2 -35 -2 -50 0 -16 2 -5 4 22 4 28 0 40 -2 28 -4z
m431 -2 c13 -20 -241 -17 -262 3 -3 3 54 6 126 6 72 0 133 -4 136 -9z m79 2
c-7 -2 -21 -2 -30 0 -10 3 -4 5 12 5 17 0 24 -2 18 -5z m127 -3 c0 -5 -14 -10
-31 -10 -17 0 -28 4 -24 10 3 6 17 10 31 10 13 0 24 -4 24 -10z m-104 -104
c19 -14 23 -46 15 -163 0 -13 -15 -32 -34 -45 -19 -14 -31 -30 -29 -39 2 -13
-9 -19 -45 -27 -72 -16 -243 -24 -243 -12 0 5 -7 10 -15 10 -8 0 -15 -4 -15
-10 0 -5 -4 -10 -10 -10 -5 0 -10 9 -10 19 0 30 -20 36 -37 11 -12 -17 -17
-19 -24 -9 -11 18 -11 40 0 58 7 12 18 9 56 -14 41 -24 58 -27 119 -26 73 1
155 10 169 18 5 3 -7 16 -26 28 -18 13 -42 36 -51 50 -24 37 -43 19 -28 -25 6
-17 7 -28 2 -25 -5 3 -30 -3 -57 -13 -26 -11 -55 -17 -63 -14 -8 2 -32 23 -52
46 -53 58 -64 126 -19 111 10 -3 29 4 44 16 15 11 27 16 27 10 0 -6 11 -11 25
-11 16 0 25 6 25 15 0 8 4 15 8 15 11 0 42 -55 42 -74 0 -31 16 -15 34 34 l18
50 49 0 c27 0 49 5 49 10 0 6 10 15 23 20 30 12 30 12 53 -4z m-523 -3 c-83
-2 -223 -2 -310 0 -87 1 -18 3 152 3 171 0 242 -2 158 -3z m-558 -13 c-11 -5
-110 -8 -220 -7 l-200 1 160 6 c262 9 282 9 260 0z m-442 -29 c-21 -18 -75
-22 -90 -7 -3 3 -16 7 -27 7 -29 2 50 16 99 17 l40 1 -22 -18z m-196 -53 c21
-20 21 -20 53 3 26 20 34 21 50 11 11 -7 28 -12 39 -12 40 0 51 -11 51 -52 0
-21 -7 -52 -15 -69 -14 -26 -14 -30 0 -35 8 -4 22 -1 31 6 11 10 18 10 26 2 9
-9 9 -12 0 -12 -18 0 -14 -38 6 -49 12 -8 -16 -11 -103 -13 -217 -5 -254 2
-240 41 3 8 -2 22 -11 32 -10 11 -12 19 -6 19 20 0 13 18 -8 25 -11 3 -20 14
-20 23 0 29 26 94 41 103 20 13 81 0 106 -23z m1118 -58 c-3 -5 -10 -10 -16
-10 -5 0 -9 5 -9 10 0 6 7 10 16 10 8 0 12 -4 9 -10z m93 -72 c-6 -18 -50 -24
-320 -43 -200 -14 -252 -15 -345 -4 -59 6 -132 11 -162 10 -74 -3 -136 8 -122
22 7 7 146 12 413 15 222 2 405 6 407 8 2 2 33 4 69 4 46 0 63 -3 60 -12z
m1049 -54 c48 -23 81 -71 114 -166 37 -106 37 -139 3 -155 -19 -9 -31 -9 -43
-1 -14 9 -29 4 -74 -23 l-56 -33 17 -29 c20 -34 122 -130 130 -122 3 3 4 32 3
64 -2 51 1 61 18 71 18 9 21 7 27 -15 8 -31 2 -63 -26 -137 -30 -80 -54 -108
-95 -108 -37 0 -45 12 -45 66 0 19 -7 46 -16 59 -13 20 -14 28 -4 40 10 12 6
22 -21 56 l-32 41 -17 -23 c-11 -14 -23 -20 -34 -16 -20 8 -21 53 -2 60 27 10
7 55 -30 67 -31 11 -36 9 -54 -12 l-19 -23 -1 62 c0 34 4 72 9 85 5 13 12 34
15 49 8 38 61 111 98 136 40 26 88 29 135 7z m-2377 -14 c0 -5 -5 -10 -11 -10
-5 0 -7 5 -4 10 3 6 8 10 11 10 2 0 4 -4 4 -10z m-43 -6 c-3 -3 -12 -4 -19 -1
-8 3 -5 6 6 6 11 1 17 -2 13 -5z m1031 -8 c3 -3 -33 -5 -79 -4 -67 1 -75 2
-39 7 51 7 109 5 118 -3z m2247 -126 c3 -5 2 -10 -4 -10 -15 0 -41 -96 -41
-150 0 -25 -5 -51 -12 -58 -13 -13 -184 -17 -225 -6 -19 5 -23 13 -23 45 0 21
4 40 9 43 4 3 11 19 14 35 10 47 39 66 124 80 43 7 89 17 103 21 35 12 48 12
55 0z m2876 -16 c20 -10 28 -20 25 -32 -24 -83 -39 -146 -62 -257 -14 -71 -30
-138 -35 -147 -10 -19 -52 -23 -122 -11 -26 4 -36 10 -33 19 3 9 -2 14 -14 14
-24 0 -24 9 -6 103 8 40 22 112 31 161 19 102 26 121 58 138 54 29 117 34 158
12z m-5991 -163 c0 -5 8 -7 18 -4 21 5 35 -9 49 -52 23 -68 -10 -73 -66 -9
-45 52 -52 74 -21 74 11 0 20 -4 20 -9z m1427 -25 c-9 -24 4 -26 31 -6 33 26
52 25 85 -5 30 -28 33 -42 16 -79 -18 -38 -38 -40 -99 -8 -52 28 -55 31 -57
71 -1 31 2 41 14 41 9 0 13 -6 10 -14z m724 -97 c-3 -8 -7 -41 -11 -74 -8 -69
-17 -95 -35 -95 -20 0 -65 62 -65 89 l1 26 18 -22 c11 -13 24 -23 29 -23 12 0
32 54 32 85 0 12 3 25 7 29 11 11 28 0 24 -15z m1662 -125 c241 -5 287 -9 287
-21 0 -19 -18 -54 -39 -74 -14 -14 -17 -14 -33 7 -37 46 -89 35 -108 -22 -12
-36 -12 -39 19 -66 17 -15 31 -30 31 -32 0 -12 -143 -17 -306 -11 -166 7 -184
9 -178 24 3 9 9 27 12 40 4 19 2 23 -12 18 -10 -4 -16 -1 -16 9 0 27 -34 75
-56 80 -65 17 -88 -63 -35 -117 29 -29 29 -29 6 -29 -13 0 -30 -2 -38 -5 -11
-5 -13 8 -12 67 1 40 -3 80 -8 89 -26 43 20 60 143 52 30 -1 184 -6 343 -9z
m1267 7 c0 -12 -20 -25 -27 -18 -7 7 6 27 18 27 5 0 9 -4 9 -9z m974 -13 c29
-133 29 -266 0 -336 -34 -82 -55 9 -48 206 4 108 14 152 34 152 5 0 12 -10 14
-22z m-852 -84 c4 -3 -1 -23 -12 -44 -13 -25 -20 -59 -20 -95 0 -51 2 -55 23
-55 13 0 36 13 52 30 28 29 28 30 10 50 -26 28 -13 34 25 13 48 -27 64 -76 64
-203 -1 -133 -24 -201 -95 -272 -44 -44 -52 -48 -97 -48 -59 0 -111 35 -142
95 -20 40 -20 40 0 55 25 19 78 170 80 228 0 28 -28 10 -34 -22 -6 -33 -8 -34
-51 -34 -41 1 -45 4 -45 25 0 30 20 115 30 126 4 5 10 -3 14 -17 7 -29 56 -59
80 -50 9 3 16 1 16 -5 0 -6 11 -11 25 -11 18 0 25 -5 25 -19 0 -10 7 -25 16
-32 14 -11 18 -10 30 6 18 24 13 39 -14 43 -14 2 -22 12 -24 29 -4 33 -20 39
-43 16 -17 -16 -17 -16 -9 7 13 41 12 123 -3 148 -13 21 -13 25 4 38 16 13 73
12 95 -2z m-2063 -421 c15 -13 18 -22 11 -33 -13 -20 -44 -2 -48 29 -4 26 9
27 37 4z"/>
<path d="M1134 2266 c-3 -14 -14 -32 -25 -42 -26 -23 -25 -26 17 -49 36 -19
106 -26 120 -13 9 10 -15 38 -32 38 -8 0 -17 12 -20 28 -7 28 -31 62 -45 62
-5 0 -11 -11 -15 -24z"/>
<path d="M3287 2132 c-8 -11 4 -62 14 -62 5 0 9 16 9 35 0 32 -12 46 -23 27z"/>
<path d="M3224 2108 c-19 -21 -64 -101 -64 -114 0 -9 72 -74 82 -74 5 0 6 -10
2 -22 -6 -21 -6 -21 10 -5 10 9 22 17 27 17 5 0 9 11 9 25 0 14 -6 25 -13 25
-9 0 -13 22 -12 82 0 88 -9 102 -41 66z m-4 -94 c0 -8 -5 -12 -10 -9 -6 4 -8
11 -5 16 9 14 15 11 15 -7z"/>
<path d="M3355 2110 c-3 -5 -8 -36 -11 -69 -4 -34 -13 -66 -20 -72 -19 -15
-17 -30 6 -57 23 -27 46 -24 98 15 36 27 41 49 15 70 -16 13 -16 14 10 8 33
-7 35 6 6 46 -22 31 -96 73 -104 59z"/>
<path d="M3375 1613 c4 -10 10 -26 12 -35 5 -19 33 -25 33 -9 0 25 -21 61 -36
61 -11 0 -14 -5 -9 -17z"/>
<path d="M3970 1904 c0 -9 5 -14 12 -12 18 6 21 28 4 28 -9 0 -16 -7 -16 -16z"/>
<path d="M7163 1523 c-18 -7 -16 -38 2 -53 13 -11 15 -7 15 24 0 20 -1 36 -2
35 -2 0 -9 -3 -15 -6z"/>
<path d="M7152 1345 c0 -16 2 -22 5 -12 2 9 2 23 0 30 -3 6 -5 -1 -5 -18z"/>
<path d="M6378 1209 c-42 -21 -46 -35 -23 -80 20 -38 30 -31 45 31 7 27 16 50
21 50 5 0 9 5 9 10 0 14 -9 12 -52 -11z"/>
<path d="M6212 1133 c5 -25 28 -28 28 -4 0 12 -6 21 -16 21 -9 0 -14 -7 -12
-17z"/>
<path d="M6282 1139 c2 -6 8 -10 13 -10 5 0 11 4 13 10 2 6 -4 11 -13 11 -9 0
-15 -5 -13 -11z"/>
<path d="M6251 1053 c-34 -73 -40 -101 -25 -114 8 -6 14 -18 14 -25 0 -22 38
-16 45 6 3 11 13 20 21 20 22 0 28 28 14 58 -29 65 -36 76 -46 79 -6 2 -16 -9
-23 -24z"/>
<path d="M11510 2894 c-47 -7 -105 -16 -130 -19 -179 -25 -378 -95 -380 -132
0 -7 -15 -29 -34 -49 -33 -35 -126 -236 -126 -273 0 -13 10 -15 62 -13 41 3
60 0 53 -6 -15 -15 -105 -31 -140 -25 -20 3 -50 -4 -85 -20 -30 -14 -71 -28
-90 -32 -19 -3 -62 -15 -95 -25 -33 -10 -105 -26 -160 -35 -163 -26 -188 -32
-202 -51 -18 -24 -18 -217 0 -232 6 -5 37 -20 67 -32 30 -13 70 -37 88 -54 45
-41 89 -138 97 -213 6 -53 5 -62 -11 -72 -11 -6 -15 -11 -10 -11 5 0 17 7 27
16 14 12 22 13 38 4 26 -14 27 -32 1 -48 -11 -6 -17 -18 -14 -25 9 -25 -22
-47 -86 -61 -36 -8 -54 -15 -40 -15 l25 -1 -30 -20 c-16 -11 -54 -27 -83 -36
-29 -9 -55 -21 -59 -27 -8 -13 123 0 185 19 26 7 48 14 50 14 8 0 0 -40 -10
-47 -48 -30 -313 -89 -354 -79 -13 4 -43 -1 -66 -10 -107 -39 -139 -42 -365
-34 -119 4 -243 5 -275 2 -37 -3 -58 -1 -58 6 0 19 -60 32 -104 22 -22 -5 -48
-9 -56 -8 -8 0 -34 0 -58 0 -53 -2 -53 -24 -1 -33 l34 -6 -30 -2 c-17 0 -36 4
-42 10 -6 6 -77 13 -176 16 -177 5 -213 -2 -204 -37 3 -10 -1 -21 -9 -24 -11
-4 -10 -12 7 -41 21 -34 21 -37 4 -55 -20 -22 -55 -26 -73 -8 -18 18 -14 53 8
73 29 26 25 33 -22 38 -37 3 -35 4 15 5 43 2 57 6 57 17 0 11 -12 15 -48 15
-26 0 -53 -5 -59 -11 -8 -8 -16 -4 -28 15 -22 33 -48 33 -70 0 -20 -30 -26
-26 -49 39 -20 52 -38 59 -67 25 -16 -20 -20 -21 -29 -8 -15 23 -12 61 8 76
16 12 15 13 -5 14 -15 0 -24 9 -32 33 -12 39 -31 145 -30 172 0 11 -6 45 -15
75 -10 33 -14 70 -10 93 6 37 -2 47 -22 27 -7 -7 -16 -5 -27 8 -16 17 -15 20
13 40 43 32 37 76 -7 54 -33 -17 -87 -32 -92 -26 -6 6 20 29 54 49 16 9 16 14
5 35 -7 14 -27 39 -45 55 l-32 30 3 175 c1 96 5 194 9 218 4 23 3 42 -1 41 -5
-1 -22 3 -37 9 -68 29 -195 2 -248 -51 -18 -17 -59 -72 -92 -122 -32 -49 -64
-97 -71 -105 -7 -8 -16 -29 -19 -47 -6 -30 -4 -33 26 -42 116 -37 173 -61 181
-79 6 -12 29 -24 60 -32 28 -7 58 -17 66 -22 8 -4 27 -12 43 -18 30 -11 36
-34 11 -44 -11 -4 -28 7 -51 31 -22 24 -37 33 -40 26 -7 -19 -27 -16 -56 7
-14 11 -29 20 -34 19 -17 -4 -89 14 -108 27 -11 8 -29 14 -40 14 -11 0 -28 7
-38 15 -11 7 -38 16 -60 20 -23 3 -52 11 -65 17 -32 16 -39 4 -51 -82 -5 -41
-15 -100 -21 -130 -14 -61 -10 -165 15 -443 21 -237 45 -292 130 -297 95 -6
116 -1 152 35 l35 35 68 -36 c38 -19 73 -41 78 -47 5 -7 25 -57 46 -112 42
-115 112 -223 167 -260 36 -24 46 -25 168 -25 112 0 136 3 170 21 59 30 132
98 148 138 l15 34 231 -6 c128 -4 318 -3 422 3 105 5 272 13 372 16 l183 7 85
-29 c79 -27 103 -45 73 -57 -7 -3 -3 -6 10 -6 12 -1 22 2 22 7 0 4 44 7 98 7
105 0 126 7 218 67 47 31 104 104 141 181 19 39 27 74 31 138 l5 86 62 6 c104
10 113 18 169 160 10 24 21 37 33 37 11 0 24 5 30 11 7 7 46 8 114 4 203 -11
204 -11 248 20 36 24 48 27 98 23 61 -4 123 -38 123 -65 0 -32 54 -125 87
-151 31 -23 46 -27 97 -27 114 0 180 42 212 134 7 20 16 35 21 34 4 0 17 -27
28 -60 12 -32 37 -83 57 -114 30 -47 46 -60 109 -91 66 -32 86 -37 180 -43
112 -8 188 6 248 42 60 37 130 117 152 172 29 73 34 78 58 57 23 -21 88 -24
123 -5 12 7 31 23 41 36 17 22 25 23 126 23 l107 0 29 -67 c21 -48 47 -86 91
-129 62 -63 64 -64 184 -84 165 -28 340 68 412 227 33 74 41 82 110 118 66 35
78 56 78 140 0 38 4 86 9 105 5 19 11 55 14 79 6 47 10 41 -77 113 -27 23 -29
28 -31 114 -2 117 -30 241 -61 269 -13 12 -52 30 -86 40 -35 11 -86 29 -115
42 -88 38 -469 102 -501 84 -17 -10 94 -48 168 -58 44 -6 44 -7 15 -15 -30 -8
-130 7 -139 21 -3 3 -33 8 -68 9 -35 1 -85 7 -113 12 -27 5 -121 14 -209 20
-108 7 -165 15 -180 25 -12 9 -44 15 -83 15 -52 0 -64 3 -77 21 -8 12 -19 18
-25 14 -7 -3 -32 7 -58 24 -25 17 -48 29 -51 27 -2 -3 -1 -23 3 -45 6 -39 8
-40 58 -50 67 -13 158 -26 327 -46 74 -9 163 -20 196 -26 34 -5 106 -9 160 -9
71 0 95 -3 87 -11 -14 -14 -76 -15 -198 0 -241 27 -318 32 -630 38 -307 5
-355 10 -355 33 0 4 66 10 148 12 164 5 187 10 172 39 -12 22 -69 39 -133 39
-41 0 -49 -3 -57 -24 -12 -33 -27 -40 -35 -16 -7 24 1 40 20 40 13 0 66 20
107 41 10 5 29 9 43 9 15 0 24 4 20 10 -3 6 -19 10 -34 10 -16 0 -34 7 -41 15
-8 9 -21 13 -36 9 -15 -4 -47 5 -91 25 -59 28 -156 50 -220 51 -17 0 -21 -4
-16 -17 4 -12 -9 -5 -38 18 -42 34 -99 61 -123 58 -6 -1 -49 -8 -96 -15z m80
-195 c35 -5 70 -15 77 -21 17 -14 17 -93 -1 -107 -8 -7 -40 -9 -92 -5 -102 7
-110 10 -94 29 10 12 9 15 -4 15 -9 0 -19 -7 -22 -15 -8 -21 -27 -19 -42 5
-16 26 -6 87 17 100 21 12 81 12 161 -1z m975 -226 c73 -13 100 -22 100 -33 0
-26 -106 -41 -225 -33 -58 5 -116 7 -130 6 -70 -5 -295 18 -317 32 -13 9 -47
19 -76 23 l-52 6 65 12 c105 18 513 10 635 -13z m835 -14 c10 -6 0 -9 -30 -9
-25 0 -79 -1 -120 -2 -112 -1 -135 1 -124 11 20 20 239 20 274 0z m-380 -94
c-12 -30 -20 -61 -17 -68 5 -13 103 -25 236 -28 92 -3 -8 -17 -125 -18 -76 -1
-115 -5 -121 -13 -6 -7 -18 -39 -28 -70 -19 -61 -28 -70 -44 -40 -19 36 52
243 103 298 20 22 18 -6 -4 -61z m490 35 c0 -5 -9 -10 -19 -10 -31 0 -34 -18
-6 -36 32 -21 33 -44 0 -44 -26 0 -33 -14 -14 -25 7 -5 5 -13 -5 -24 -13 -15
-26 -16 -77 -10 -62 7 -92 19 -48 19 39 0 58 21 68 74 5 27 15 52 22 57 19 12
79 11 79 -1z m-716 -29 c17 -7 17 -8 2 -24 -10 -9 -26 -17 -36 -17 -28 0 -34
-18 -8 -22 27 -4 35 -31 15 -49 -12 -12 -12 -15 2 -26 14 -12 14 -15 -8 -33
-13 -11 -32 -20 -43 -20 -11 0 -28 -10 -37 -21 -12 -16 -23 -20 -39 -15 l-22
7 25 37 c14 20 40 42 58 49 17 6 24 12 15 12 -36 2 -72 91 -37 91 5 0 9 5 9
10 0 6 -11 10 -26 10 -20 0 -28 -8 -41 -37 -8 -21 -22 -46 -30 -55 -16 -18
-10 -38 13 -38 19 0 18 -26 -2 -34 -10 -4 -13 -13 -9 -26 5 -17 2 -20 -23 -20
-16 0 -50 -3 -75 -6 -41 -6 -47 -4 -62 20 -16 24 -16 28 -1 51 10 16 26 25 41
25 14 0 25 5 25 10 0 6 -7 10 -15 10 -12 0 -8 11 15 44 16 25 36 48 43 53 6 4
48 10 92 14 113 8 137 9 159 0z m-1416 -18 c3 -12 -8 -14 -88 -17 -33 -1 -23
18 12 25 46 9 71 6 76 -8z m1548 -18 c2 -11 -3 -42 -11 -70 -7 -27 -17 -63
-20 -80 -7 -32 -21 -46 -40 -38 -14 5 -9 39 8 61 6 8 5 17 -3 27 -11 13 -8 23
18 60 23 32 27 45 17 45 -8 0 -15 5 -15 11 0 19 43 5 46 -16z m-2021 -26 c0
-9 -14 -15 -42 -17 -33 -2 -43 0 -43 12 0 9 12 16 33 19 43 5 52 3 52 -14z
m2915 -42 c0 -31 -3 -38 -17 -35 -14 3 -17 12 -14 43 1 22 5 44 8 49 10 15 23
-18 23 -57z m-1574 26 c89 -30 200 -168 229 -285 6 -25 5 -28 -19 -28 -21 0
-34 13 -72 70 -88 135 -163 177 -293 168 -114 -8 -189 -65 -239 -180 l-22 -53
4 40 c2 22 10 60 17 85 41 148 235 238 395 183z m-4295 -83 c10 -6 19 -20 19
-30 0 -19 -7 -20 -97 -20 -85 0 -100 -3 -119 -21 -12 -12 -27 -18 -33 -14 -16
9 -13 47 5 73 14 20 23 22 110 22 53 0 104 -5 115 -10z m5485 -64 c-1 -63 -2
-65 -30 -70 -39 -8 -47 0 -30 32 7 15 14 37 14 49 0 34 11 53 29 53 15 0 18
-10 17 -64z m392 -7 c2 -24 8 -49 13 -55 10 -12 2 -24 -16 -24 -15 0 -31 56
-27 98 5 48 26 34 30 -19z m-3321 20 c56 -21 110 -97 132 -186 5 -21 14 -53
19 -70 19 -61 -6 -34 -50 53 -55 110 -92 144 -155 144 -34 0 -55 -7 -80 -26
l-34 -26 7 29 c9 36 31 62 69 79 37 16 56 17 92 3z m-2889 -129 c7 0 12 -4 12
-10 0 -16 -56 -11 -71 6 -18 22 9 39 32 18 8 -7 21 -14 27 -14z m-95 4 c3 -3
3 -12 0 -19 -6 -17 -33 -8 -33 11 0 14 21 19 33 8z m219 -44 c2 -6 25 -16 52
-23 47 -12 99 -57 83 -73 -9 -9 -125 43 -159 72 -24 19 -25 23 -10 27 28 8 30
7 34 -3z m-224 -32 c-2 -6 -10 -14 -16 -16 -7 -2 -10 2 -6 12 7 18 28 22 22 4z
m5362 -17 l105 -6 -108 -7 c-120 -9 -140 -16 -161 -56 -10 -20 -28 -32 -58
-41 -24 -7 -52 -17 -63 -21 -11 -5 -33 -11 -49 -13 -25 -4 -30 0 -47 38 -11
24 -22 57 -25 73 -5 26 -3 31 17 35 35 6 268 5 389 -2z m87 -62 c7 -7 9 -25 6
-40 -4 -21 -1 -30 11 -35 9 -3 16 -12 16 -19 0 -19 -65 -27 -175 -23 -72 2
-90 6 -90 18 0 12 17 16 83 18 65 2 82 6 82 18 0 24 29 74 43 74 7 0 18 -5 24
-11z m-5350 -30 c15 -6 48 -20 73 -30 25 -10 88 -35 140 -55 102 -39 123 -51
114 -66 -3 -5 0 -15 6 -23 19 -23 5 -42 -34 -49 -42 -8 -45 -18 -13 -42 21
-16 20 -16 -34 -10 -65 7 -156 45 -181 75 -21 25 -38 27 -38 6 0 -8 5 -15 11
-15 5 0 7 -5 4 -10 -4 -6 -19 -9 -33 -7 -24 3 -28 9 -35 53 -5 27 -15 71 -23
98 -25 86 -18 99 43 75z m5232 -2 c14 -17 4 -27 -26 -27 -16 0 -23 6 -23 20 0
23 31 27 49 7z m-1216 -68 c40 -6 76 -15 82 -20 5 -5 -172 -9 -443 -9 -445 0
-452 0 -452 20 0 20 7 20 371 20 217 0 400 -5 442 -11z m-853 -19 c0 -5 -9
-10 -20 -10 -11 0 -20 5 -20 10 0 6 9 10 20 10 11 0 20 -4 20 -10z m2214 -46
c45 -17 0 -24 -156 -24 -176 0 -217 7 -182 29 20 12 304 8 338 -5z m-791 -32
c30 -33 -18 -57 -58 -29 -17 13 -17 15 6 30 29 21 32 21 52 -1z m-1695 -23
c-16 -10 -33 5 -23 21 5 8 11 8 21 -1 12 -10 12 -14 2 -20z m-3008 -15 c0 -8
-4 -12 -10 -9 -5 3 -10 13 -10 21 0 8 5 12 10 9 6 -3 10 -13 10 -21z m4558 5
c35 -13 26 -29 -18 -30 -22 -1 -46 -2 -52 -3 -7 -1 -14 12 -16 27 -3 28 -2 29
30 22 18 -4 43 -11 56 -16z m-108 -25 c0 -8 -4 -14 -10 -14 -5 0 -10 9 -10 21
0 11 5 17 10 14 6 -3 10 -13 10 -21z m-281 -10 c7 -7 -476 -2 -619 5 -74 4 34
5 240 3 206 -3 377 -6 379 -8z m483 -29 l11 -24 25 19 c37 29 46 25 60 -27 19
-70 26 -78 56 -75 37 5 33 -15 -12 -57 -77 -74 -182 -79 -269 -14 -38 28 -86
105 -81 130 3 15 8 13 32 -14 16 -18 37 -33 46 -33 28 0 60 39 66 80 6 34 10
40 30 40 16 0 28 -8 36 -25z m-582 -80 c0 -8 -4 -15 -10 -15 -5 0 -10 7 -10
15 0 8 5 15 10 15 6 0 10 -7 10 -15z m1885 -26 c0 -17 -43 -25 -58 -10 -7 7
-3 13 14 20 30 12 44 9 44 -10z m-5968 -105 c-3 -3 -12 -4 -19 -1 -8 3 -5 6 6
6 11 1 17 -2 13 -5z m2933 -167 c0 -5 5 -5 10 -2 6 3 10 17 10 30 0 13 5 27
10 30 20 12 22 -26 3 -87 l-18 -63 -55 -12 c-156 -34 -469 -62 -760 -68 -232
-4 -198 3 105 24 94 7 202 19 242 28 39 9 84 13 100 10 33 -6 230 18 293 36
54 15 67 38 18 31 -47 -8 -65 14 -48 56 19 46 40 53 67 22 13 -15 23 -31 23
-35z m-2180 37 c0 -14 -3 -14 -15 -4 -8 7 -15 14 -15 16 0 2 7 4 15 4 8 0 15
-7 15 -16z m1023 -9 c-1 -10 -83 -28 -91 -20 -3 2 -2 11 2 20 4 12 17 15 48
13 24 -2 42 -7 41 -13z m-1073 -50 c0 -8 -7 -15 -15 -15 -16 0 -20 12 -8 23
11 12 23 8 23 -8z m40 -49 c0 -26 -32 -37 -79 -27 -2 1 2 7 9 15 10 13 21 17
63 25 4 0 7 -5 7 -13z m150 -21 c7 -9 10 -19 6 -22 -8 -9 -38 9 -44 25 -5 17
23 15 38 -3z m229 -65 c113 -20 113 -29 3 -29 -57 -1 -112 4 -123 9 -18 10
-18 12 -3 36 15 23 18 23 39 10 12 -8 50 -20 84 -26z m686 -22 c15 -6 11 -7
-14 -3 -18 3 -62 5 -98 5 -35 0 -62 4 -59 9 7 10 143 2 171 -11z m-522 -5 c-7
-2 -19 -2 -25 0 -7 3 -2 5 12 5 14 0 19 -2 13 -5z m160 0 c-7 -2 -21 -2 -30 0
-10 3 -4 5 12 5 17 0 24 -2 18 -5z m-873 -23 c0 -5 -4 -10 -10 -10 -5 0 -10 5
-10 10 0 6 5 10 10 10 6 0 10 -4 10 -10z m25 -40 c3 -5 -1 -10 -10 -10 -9 0
-13 5 -10 10 3 6 8 10 10 10 2 0 7 -4 10 -10z m50 -50 c10 -11 16 -23 12 -26
-9 -9 -47 16 -47 31 0 21 14 19 35 -5z"/>
<path d="M11522 2638 c-8 -10 -2 -13 23 -13 19 0 40 6 46 13 10 10 6 12 -23
12 -19 0 -40 -6 -46 -12z"/>
<path d="M12494 2205 c-7 -18 14 -47 27 -39 5 3 9 16 9 30 0 27 -27 34 -36 9z"/>
<path d="M7710 1650 c0 -5 7 -10 15 -10 8 0 15 5 15 10 0 6 -7 10 -15 10 -8 0
-15 -4 -15 -10z"/>
<path d="M7770 1640 c0 -6 7 -10 15 -10 8 0 15 2 15 4 0 2 -7 6 -15 10 -8 3
-15 1 -15 -4z"/>
<path d="M12125 1492 c-22 -34 -24 -41 -13 -65 10 -21 20 -27 46 -27 39 0 40
9 7 38 -30 26 -24 45 11 36 19 -5 24 -2 24 13 0 22 -18 43 -37 43 -7 0 -24
-17 -38 -38z"/>
<path d="M12040 1446 c0 -2 7 -7 16 -10 8 -3 12 -2 9 4 -6 10 -25 14 -25 6z"/>
<path d="M12063 2903 c9 -2 25 -2 35 0 9 3 1 5 -18 5 -19 0 -27 -2 -17 -5z"/>
<path d="M12190 2893 c0 -5 37 -19 83 -33 110 -33 307 -130 359 -178 24 -22
58 -42 78 -46 65 -13 175 -23 183 -16 9 8 -123 104 -203 148 -71 39 -191 76
-347 107 -134 27 -153 29 -153 18z"/>
<path d="M5560 2854 c-30 -2 -147 -8 -260 -14 -286 -16 -305 -22 -339 -120
-11 -30 -25 -68 -32 -85 -7 -16 -22 -57 -33 -90 l-21 -60 -65 -3 c-84 -4 -100
-21 -100 -102 0 -31 5 -71 11 -89 10 -29 14 -31 57 -31 56 0 81 12 65 32 -6 7
-9 24 -6 38 l4 25 182 3 c148 2 186 0 202 -12 26 -19 15 -23 -96 -34 -96 -9
-109 -7 -109 14 0 23 -57 18 -65 -6 -4 -12 -19 -22 -41 -26 -19 -3 -33 -11
-31 -18 4 -14 79 -34 131 -35 32 -1 36 1 27 13 -9 11 4 14 81 18 101 6 136 -5
67 -20 l-44 -9 38 -8 c26 -5 64 -1 127 14 73 17 120 21 264 21 97 0 207 5 245
12 l70 12 -51 18 c-28 9 -55 24 -62 32 -9 12 -20 13 -56 6 -75 -15 -311 -12
-340 5 -22 13 0 14 202 15 141 0 229 -4 233 -10 9 -14 43 -12 47 2 3 9 9 8 22
-5 10 -9 24 -17 32 -17 11 0 13 -7 8 -27 l-7 -26 78 6 c43 4 80 9 82 11 12 11
-15 38 -48 48 -22 6 -37 13 -35 15 2 2 95 5 207 6 l204 2 7 40 c3 22 12 120
19 218 l13 177 -22 23 c-22 22 -23 22 -415 23 -215 0 -417 -1 -447 -2z"/>
<path d="M2385 2760 c-3 -5 -1 -10 4 -10 6 0 11 5 11 10 0 6 -2 10 -4 10 -3 0
-8 -4 -11 -10z"/>
<path d="M8070 2526 c0 -2 7 -9 15 -16 13 -11 14 -10 9 4 -5 14 -24 23 -24 12z"/>
<path d="M8310 2509 c-91 -6 -168 -14 -173 -18 -4 -4 -14 -68 -22 -142 -8 -74
-19 -158 -23 -186 -8 -47 -6 -55 13 -73 22 -21 26 -21 251 -10 481 22 877 32
1081 26 119 -4 214 -3 217 2 7 12 -143 157 -224 217 -80 58 -156 97 -235 119
-33 10 -69 24 -81 31 -11 7 -47 18 -80 25 -81 15 -524 21 -724 9z"/>
<path d="M4050 2467 c0 -19 43 -57 64 -57 22 0 16 20 -10 34 -10 6 -23 17 -27
24 -11 16 -27 16 -27 -1z"/>
<path d="M9586 2287 c54 -56 117 -124 140 -150 26 -30 48 -47 63 -47 19 0 22
4 17 24 -5 20 -3 23 13 19 11 -3 17 -11 15 -18 -6 -15 30 -30 46 -20 8 5 8 11
0 20 -8 9 -8 15 0 20 23 14 7 25 -39 25 -32 0 -53 5 -62 16 -7 8 -21 13 -31
11 -13 -4 -51 25 -130 99 -62 57 -117 104 -122 104 -5 0 35 -46 90 -103z"/>
<path d="M6367 2224 c-11 -12 3 -24 29 -24 15 0 24 6 24 15 0 15 -40 21 -53 9z"/>
<path d="M5610 2140 c20 -13 53 -13 45 0 -3 6 -18 10 -33 10 -21 0 -24 -2 -12
-10z"/>
<path d="M5550 2109 c-53 -22 -100 -85 -100 -134 0 -58 63 -129 124 -140 22
-5 44 -1 65 9 17 9 31 18 31 20 0 2 -22 1 -48 -2 -44 -4 -52 -1 -85 28 -27 23
-37 40 -37 62 0 38 20 33 34 -10 22 -62 57 -67 89 -12 20 33 38 38 57 15 17
-20 26 -12 33 31 15 93 -78 169 -163 133z m104 -41 c30 -28 27 -78 -5 -78 -11
0 -22 -7 -25 -15 -5 -12 -9 -13 -21 -3 -13 10 -13 13 2 24 15 11 14 13 -7 20
-13 4 -30 7 -38 6 -8 -1 -21 2 -29 7 -20 13 1 38 43 50 47 14 53 13 80 -11z"/>
<path d="M5730 2070 c0 -5 5 -10 10 -10 6 0 10 5 10 10 0 6 -4 10 -10 10 -5 0
-10 -4 -10 -10z"/>
<path d="M8850 2070 c0 -5 5 -10 10 -10 6 0 10 5 10 10 0 6 -4 10 -10 10 -5 0
-10 -4 -10 -10z"/>
<path d="M8220 1970 c0 -14 7 -20 24 -20 32 0 49 -24 56 -79 l5 -46 40 3 c22
2 44 8 49 12 13 13 -19 57 -57 76 -17 9 -34 20 -37 23 -7 10 -67 51 -74 51 -3
0 -6 -9 -6 -20z"/>
<path d="M8356 1775 c-16 -12 -18 -19 -8 -37 6 -13 14 -38 17 -55 10 -52 25
-39 25 21 0 30 5 58 10 61 13 8 3 25 -13 25 -7 0 -21 -7 -31 -15z"/>
<path d="M8463 1769 c11 -7 23 -7 35 0 14 9 11 10 -18 10 -29 0 -32 -1 -17
-10z"/>
<path d="M8304 1746 c-3 -7 1 -39 10 -71 8 -31 12 -63 10 -70 -3 -7 -1 -16 5
-20 12 -7 16 131 5 159 -8 20 -23 21 -30 2z"/>
<path d="M8848 1744 c51 -13 65 -21 75 -42 6 -15 19 -38 29 -51 10 -13 18 -32
18 -42 0 -17 -9 -19 -92 -19 -51 0 -111 -5 -133 -12 l-40 -12 45 -7 c25 -4 93
-10 151 -14 105 -8 107 -7 114 15 12 39 -43 157 -84 179 -9 5 -46 12 -81 15
l-65 6 63 -16z"/>
<path d="M9445 1719 c-230 -7 -292 -12 -304 -23 -12 -13 -11 -23 9 -78 13 -35
32 -83 43 -108 68 -157 73 -161 277 -175 119 -8 421 18 480 41 54 22 68 51 87
183 13 93 13 113 2 137 l-14 29 -145 1 c-80 1 -275 -3 -435 -7z"/>
<path d="M8704 1685 c-9 -22 21 -52 59 -59 116 -22 167 -15 167 23 0 28 -55
48 -143 50 -63 2 -78 -1 -83 -14z"/>
<path d="M10085 1637 c-4 -36 -5 -71 -2 -79 3 -7 6 2 6 20 1 30 3 32 23 21 26
-14 126 -6 142 12 8 9 -4 10 -53 5 -70 -7 -91 2 -91 38 0 11 -4 27 -9 35 -6 9
-11 -7 -16 -52z"/>
<path d="M10147 1694 c-4 -4 -7 -14 -7 -21 0 -11 12 -13 48 -10 61 5 66 30 6
35 -22 1 -43 -1 -47 -4z"/>
<path d="M10390 1663 c0 -13 5 -23 10 -23 13 0 13 11 0 30 -8 12 -10 11 -10
-7z"/>
<path d="M8444 1605 c6 -32 5 -35 -16 -35 l-23 -1 25 -14 c27 -15 70 -20 70
-7 0 4 -9 18 -20 32 -11 14 -20 33 -20 43 0 9 -5 17 -11 17 -7 0 -9 -12 -5
-35z"/>
<path d="M8984 1479 c26 -6 43 -6 50 1 7 7 -6 10 -39 9 l-50 -1 39 -9z"/>
<path d="M8815 1431 c-3 -6 9 -13 27 -16 51 -9 258 -1 261 10 3 13 -279 19
-288 6z"/>
<path d="M8900 1320 c0 -5 5 -10 10 -10 6 0 10 5 10 10 0 6 -4 10 -10 10 -5 0
-10 -4 -10 -10z"/>
<path d="M8940 1300 c0 -5 5 -10 10 -10 6 0 10 5 10 10 0 6 -4 10 -10 10 -5 0
-10 -4 -10 -10z"/>
<path d="M12012 1110 c-74 -11 -102 -39 -102 -99 1 -53 20 -87 39 -68 9 9 18
5 41 -20 24 -26 29 -37 24 -63 -9 -40 -22 -47 -30 -15 -7 30 -34 34 -34 4 0
-25 48 -129 60 -129 4 0 10 -7 14 -15 4 -11 -4 -10 -34 7 -21 13 -42 20 -45
16 -9 -9 32 -77 60 -100 11 -10 60 -38 109 -64 l88 -46 83 42 c96 49 155 94
155 118 0 10 9 23 20 30 12 7 20 23 20 38 l0 26 -42 -24 -43 -24 0 89 c1 81 3
91 23 108 13 10 30 15 38 12 31 -12 44 17 44 97 0 62 -3 79 -16 84 -22 9 -408
5 -472 -4z m48 -60 c0 -5 -10 -10 -22 -10 -19 0 -20 2 -8 10 19 13 30 13 30 0z
m334 -9 c4 -5 -3 -7 -14 -4 -23 6 -26 13 -6 13 8 0 17 -4 20 -9z m-119 -28
c-4 -10 -7 -29 -6 -42 0 -13 -4 -30 -10 -37 -9 -12 -3 -14 35 -14 35 0 49 5
58 20 7 11 19 20 26 20 18 0 -12 -56 -38 -70 -11 -6 -25 -20 -31 -33 -9 -18
-9 -20 2 -9 18 17 29 15 29 -5 0 -20 -28 -53 -45 -53 -18 0 -48 -37 -40 -50 4
-6 14 -9 22 -6 8 4 3 -11 -14 -37 -16 -23 -34 -51 -39 -62 -19 -35 -42 -30
-50 10 -3 20 -13 39 -21 42 -7 3 -24 29 -38 58 -13 29 -29 56 -34 60 -6 3 -11
15 -11 27 0 16 3 18 14 9 22 -19 29 5 10 34 -9 14 -25 25 -35 25 -12 0 -19 7
-19 20 0 17 3 18 26 10 14 -6 43 -10 64 -10 32 0 39 -4 44 -25 4 -14 13 -25
20 -25 8 0 21 -3 30 -6 23 -9 21 43 -1 69 -17 18 -17 20 10 39 15 11 27 28 27
39 0 10 5 19 11 19 7 0 8 -7 4 -17z m-248 -39 c-3 -3 -12 -4 -19 -1 -8 3 -5 6
6 6 11 1 17 -2 13 -5z m33 -14 c0 -5 -4 -10 -10 -10 -5 0 -10 5 -10 10 0 6 5
10 10 10 6 0 10 -4 10 -10z m160 -376 c0 -2 -9 -4 -20 -4 -11 0 -20 4 -20 9 0
5 9 7 20 4 11 -3 20 -7 20 -9z"/>
<path d="M3241 1058 c-17 -17 -31 -37 -31 -44 0 -7 -9 -16 -20 -19 -26 -8 -25
-21 3 -30 19 -7 18 -9 -13 -12 -46 -6 -64 -23 -24 -23 16 0 39 -3 51 -6 22 -6
21 -7 117 102 20 23 36 47 36 53 0 6 -18 11 -44 11 -36 0 -49 -6 -75 -32z"/>
<path d="M3412 1048 c-71 -77 -202 -233 -202 -240 0 -5 22 -8 49 -8 l50 0 120
137 c66 76 117 141 115 145 -3 4 -25 8 -49 8 -39 0 -48 -5 -83 -42z"/>
<path d="M3063 856 c-18 -24 -33 -46 -33 -49 0 -4 22 -7 48 -7 42 0 52 4 85
38 51 52 48 62 -15 62 -51 -1 -55 -3 -85 -44z"/>
<path d="M12467 883 c-8 -12 4 -63 14 -63 12 0 12 57 0 65 -5 3 -12 2 -14 -2z"/>
<path d="M4960 451 c0 -113 -1 -121 -22 -135 -12 -9 -30 -16 -39 -16 -22 0
-46 29 -51 60 -2 20 -9 25 -33 25 -29 0 -30 -2 -29 -43 1 -67 27 -87 114 -87
63 0 72 3 97 28 28 27 28 29 28 155 l0 127 -32 3 -33 3 0 -120z"/>
<path d="M8512 535 c0 -16 2 -22 5 -12 2 9 2 23 0 30 -3 6 -5 -1 -5 -18z"/>
<path d="M8633 525 c0 -22 2 -30 4 -17 2 12 2 30 0 40 -3 9 -5 -1 -4 -23z"/>
<path d="M8762 530 c0 -19 2 -27 5 -17 2 9 2 25 0 35 -3 9 -5 1 -5 -18z"/>
<path d="M9170 550 c0 -5 5 -10 10 -10 6 0 10 5 10 10 0 6 -4 10 -10 10 -5 0
-10 -4 -10 -10z"/>
<path d="M9402 530 c0 -19 2 -27 5 -17 2 9 2 25 0 35 -3 9 -5 1 -5 -18z"/>
<path d="M9612 535 c0 -16 2 -22 5 -12 2 9 2 23 0 30 -3 6 -5 -1 -5 -18z"/>
<path d="M9832 530 c0 -19 2 -27 5 -17 2 9 2 25 0 35 -3 9 -5 1 -5 -18z"/>
<path d="M9010 523 c0 -5 5 -15 10 -23 8 -12 10 -11 10 8 0 12 -4 22 -10 22
-5 0 -10 -3 -10 -7z"/>
<path d="M9260 510 c0 -5 5 -10 10 -10 6 0 10 5 10 10 0 6 -4 10 -10 10 -5 0
-10 -4 -10 -10z"/>
<path d="M5105 447 c-31 -31 -35 -41 -35 -85 0 -94 76 -145 157 -106 20 11 39
25 41 32 5 15 -41 16 -70 1 -30 -16 -68 3 -68 35 0 24 3 25 73 28 l72 3 -2 34
c-2 46 -39 81 -91 88 -37 5 -45 2 -77 -30z m110 -43 c0 -15 -8 -19 -40 -19
-33 0 -41 4 -43 21 -4 28 35 47 63 29 11 -7 20 -21 20 -31z"/>
<path d="M5383 470 c-50 -20 -76 -103 -53 -164 14 -38 67 -68 109 -62 36 6 81
31 81 46 0 14 -43 13 -74 -2 -22 -9 -29 -8 -46 7 -38 34 -22 49 55 55 78 6 87
16 64 72 -19 46 -84 69 -136 48z m82 -66 c0 -15 -9 -20 -38 -22 -48 -4 -62 22
-27 50 20 16 25 17 44 5 12 -8 21 -23 21 -33z"/>
<path d="M5574 457 c-2 -7 -3 -74 -2 -148 l3 -134 27 -3 c25 -3 27 0 30 40 3
37 6 43 23 40 87 -15 84 -15 115 18 26 27 30 40 30 85 0 71 -34 115 -89 115
-20 0 -42 -5 -49 -12 -9 -9 -15 -9 -24 0 -16 16 -57 15 -64 -1z m148 -44 c22
-20 24 -80 2 -111 -33 -47 -94 -13 -94 53 0 63 51 95 92 58z"/>
<path d="M11784 355 c-3 -19 -3 -46 0 -60 5 -21 12 -25 46 -25 25 0 42 6 48
16 8 14 10 14 21 0 8 -10 29 -16 55 -16 l41 0 2 50 c3 63 -9 70 -121 70 l-85
0 -7 -35z"/>
<path d="M12071 338 c-17 -28 -28 -55 -25 -60 7 -12 82 -10 89 2 3 6 19 10 35
10 16 0 32 -4 35 -10 7 -11 78 -14 88 -4 3 3 -4 22 -16 42 -38 68 -45 72 -113
72 l-64 0 -29 -52z"/>
<path d="M12337 383 c-4 -3 -7 -30 -7 -60 l0 -53 40 0 c33 0 42 4 49 22 l8 22
12 -22 c14 -27 56 -29 70 -4 9 16 11 16 23 -1 10 -14 24 -18 53 -15 39 3 40 4
43 46 2 24 -2 50 -9 58 -14 18 -110 19 -127 2 -10 -10 -17 -10 -32 0 -21 13
-112 17 -123 5z"/>
<path d="M8205 339 c17 -5 126 -18 243 -28 209 -20 292 -35 292 -54 0 -9 -129
-2 -240 13 -30 4 -62 4 -70 -1 -10 -5 5 -8 42 -9 31 0 59 -4 62 -9 3 -4 45
-11 93 -14 49 -4 122 -11 163 -17 115 -18 476 -19 605 -3 61 8 149 16 198 20
48 3 90 10 93 14 3 5 31 9 62 9 37 1 52 4 42 9 -8 5 -40 5 -71 1 -110 -15
-254 -23 -244 -12 21 20 87 32 291 52 302 30 313 40 39 36 -203 -3 -237 -6
-287 -24 -31 -11 -65 -25 -75 -30 -10 -5 -36 -12 -58 -16 l-40 -6 29 24 c16
13 25 29 22 35 -5 8 -94 11 -291 11 -242 0 -284 -2 -289 -15 -3 -8 -2 -15 2
-15 4 0 18 -9 32 -21 l25 -20 -40 7 c-22 3 -53 12 -70 20 -107 46 -161 54
-379 53 -142 0 -201 -4 -181 -10z m588 -96 c-7 -2 -19 -2 -25 0 -7 3 -2 5 12
5 14 0 19 -2 13 -5z m650 0 c-7 -2 -19 -2 -25 0 -7 3 -2 5 12 5 14 0 19 -2 13
-5z"/>
<path d="M8008 333 c6 -2 18 -2 25 0 6 3 1 5 -13 5 -14 0 -19 -2 -12 -5z"/>
<path d="M10188 333 c7 -3 16 -2 19 1 4 3 -2 6 -13 5 -11 0 -14 -3 -6 -6z"/>
<path d="M8328 283 c12 -2 30 -2 40 0 9 3 -1 5 -23 4 -22 0 -30 -2 -17 -4z"/>
<path d="M9848 283 c12 -2 30 -2 40 0 9 3 -1 5 -23 4 -22 0 -30 -2 -17 -4z"/>
</g>
</svg>
